<svg viewBox="0 0 32 32" xmlns="http://www.w3.org/2000/svg"><path d="m9 4c-1.654 0-3 1.346-3 3 0 1.3016094.8387486 2.4021391 2 2.8164062v1.4882818 11.902343 3.816407c0 .54.4365625.976562.9765625.976562h.046875c.54 0 .9765625-.436563.9765625-.976562v-4.794922c.334707-.38876 1.138423-1.181641 3.445312-1.181641 1.224001 0 2.22511.426906 3.28711.878906 1.037.442 2.109469.898438 3.355469.898438 2.359 0 3.961484-1.239531 4.646484-1.769531l.152344-.115235c.551-.399 1.113281-.943453 1.113281-1.939453v-8.324219c0-.9079998-.778172-1.675781-1.701172-1.675781-.495 0-.858422.2865937-1.357422.6835938-.662.5240002-1.660515 1.3164062-2.853515 1.3164062-.815 0-1.610203-.380266-2.533203-.822266-1.151001-.5519996-2.456329-1.177734-4.111329-1.177734-1.135102 0-2.021672.1883393-2.730468.4570312.77618-.5428488 1.287109-1.440251 1.287109-2.4570312 0-1.654-1.346-3-3-3zm0 2c.552 0 1 .449 1 1s-.448 1-1 1-1-.449-1-1 .448-1 1-1zm4.443359 5c1.202 0 2.195047.476469 3.248047.980469 1.045.502 2.126485 1.019531 3.396485 1.019531 1.755 0 3.070156-.945516 3.910156-1.603516v7.669922c-.001.004-.045063.07886-.289063.25586l-.199218.152343c-.567.438-1.746875 1.34961-3.421875 1.34961-.838 0-1.641266-.341282-2.572266-.738281-1.143-.488-2.439266-1.041016-4.072266-1.041016-1.552 0-2.657359.313078-3.443359.705078v-7.388672c.345-.456 1.132359-1.361328 3.443359-1.361328z"/></svg>