<?xml version="1.0" encoding="UTF-8"?>
<svg id="Ebene_1" xmlns="http://www.w3.org/2000/svg" version="1.1" viewBox="0 0 610.74 147.92">
  <!-- Generator: Adobe Illustrator 29.2.1, SVG Export Plug-In . SVG Version: 2.1.0 Build 116)  -->
  <defs>
    <style>
      .st0 {
        fill: #13344f;
      }

      .st1 {
        fill: #eb6037;
      }

      .st2 {
        fill: #f08b24;
      }

      .st3 {
        fill: #f08a22;
      }

      .st4 {
        fill: #f0881e;
      }

      .st5 {
        fill: #a5bfdb;
      }

      .st6 {
        fill: #133450;
      }

      .st7 {
        fill: #fff;
      }

      .st8 {
        fill: #f0891f;
      }

      .st9 {
        fill: #a5bedb;
      }
    </style>
  </defs>
  <g>
    <path class="st6" d="M-645.8,839.09c1.87-.31,30.12-.32,32.17,0,.19,1.57.06,3.19.08,4.81.02,1.56,0,3.12,0,4.67v38.5c0,1.56,0,3.12,0,4.67.01,1.61-.06,3.23.06,4.91.42.05.7.12.98.12,18.31,0,36.61,0,54.89,0,.51-.87.29-1.71.29-2.5.02-17.58.01-35.16.01-52.74,0-.8.03-1.61.04-2.3.18-.16.23-.22.29-.25.06-.04.13-.08.2-.08,10.16-.02,20.31-.04,30.47-.05.36,0,.73.04,1.21.08.07.45.17.86.2,1.28.03.52,0,1.04,0,1.56,0,44.28,0,88.56,0,132.84v2.75c-.53.09-.94.22-1.36.22-9.86.01-19.72,0-29.58,0-.43,0-.86-.06-1.42-.1-.13-1.88-.05-3.64-.07-5.4-.01-1.78,0-3.56,0-5.34v-36.94c0-1.78,0-3.56,0-5.34,0-1.76-.02-3.53-.03-5.11-.21-.23-.26-.3-.32-.33-.06-.04-.14-.05-.21-.05-18.24-.01-36.48-.03-54.72-.04-.21,0-.43.06-.64.1-.49.52-.31,1.14-.31,1.7-.02,4.75,0,9.49,0,14.24,0,13.35,0,26.7,0,40.05,0,.8.14,1.62-.19,2.37-1.76.24-28.56.32-31.97.09-.07-.37-.19-.77-.22-1.19-.04-.52-.01-1.04-.01-1.56,0-44.36,0-88.71,0-133.07,0-.87-.12-1.76.13-2.59Z"/>
    <path class="st8" d="M-339.58,882.22c3.67-10.26,9.59-18.84,16-26.95-.09-.89-.71-1.11-1.16-1.46-9.03-6.77-19.07-11.35-30.11-13.71-1.81-.39-3.65-.63-5.47-.97-.63-.12-1.26-.29-1.85-.63h101.14c-.72.49-1.48.56-2.25.67-13.63,1.99-26,7.03-36.82,15.61-14.33,11.36-23.69,25.96-27.89,43.79-1.64,6.97-2.3,14.05-1.88,21.2,1.03,17.44,7.03,32.92,18.36,46.29,2.88,3.4,6.02,6.55,9.45,9.4.49.41.94.87,1.36,1.26-.17.55-.51.46-.77.46-6.67.02-13.35,0-20.02.05-1.16,0-1.94-.4-2.63-1.32-2.9-3.85-5.8-7.7-8.37-11.79-2.33-3.71-4.34-7.59-5.98-11.66-.28-.68-.59-1.35-.95-2.18-.49.29-.95.48-1.32.78-2.73,2.18-5.59,4.16-8.66,5.82-9.3,5.03-19.18,6.36-29.52,4.54-6.05-1.06-11.76-3.09-16.88-6.54-11-7.4-18-17.62-20.26-30.68-4.6-26.51,13.5-49.53,37.62-53.44,13.37-2.17,25.44,1.01,36.17,9.28.82.63,1.62,1.28,2.71,2.15Z"/>
    <path class="st4" d="M-252.35,870.1c25.2.08,46.03,20.33,46.04,46.01,0,26.42-21.56,46.08-45.91,46.1-24.83.02-45.97-20.03-46.04-45.98-.06-25.51,20.57-45.98,45.91-46.14Z"/>
    <path class="st0" d="M-509.15,838.96c.5-.04.86-.1,1.21-.1,9.04-.21,28.74-.1,30.87.17.05.05.12.09.16.15.04.06.07.14.07.2.02,45.68.04,91.36.06,137.05,0,.29-.06.58-.1.97-.37.06-.71.18-1.06.18-10.08,0-20.16,0-30.25,0-.22,0-.44-.05-.79-.09-.07-.39-.19-.79-.22-1.21-.04-.52-.01-1.04-.01-1.56,0-44.35,0-88.7,0-133.05,0-.87.04-1.74.06-2.73Z"/>
    <path class="st3" d="M-379.97,838.75c-.64.13-1.27.3-1.91.39-12.56,1.81-24.08,6.29-34.33,13.78-16.87,12.33-27.51,28.78-31.06,49.38-4.13,23.98,1.88,45.44,17.44,64.16,2.66,3.2,5.65,6.08,8.83,8.77.56.47,1.09.97,1.81,1.6-.41.17-.64.34-.88.35-.67.04-1.33.02-2,.02-11.5,0-22.99,0-34.49,0-.8,0-1.62.13-2.44-.2-.08-.31-.2-.58-.22-.87-.19-2.72-.02-135.9.18-137.43.36-.08.77-.2,1.19-.26.29-.04.59-.01.89-.01,25.36,0,50.73,0,76.09,0,.3,0,.59,0,.89,0,0,.1,0,.2,0,.3Z"/>
    <path class="st9" d="M-363.02,1026.88c2.27,3.31,4.42,6.4,6.52,9.53,2.05,3.06,4.12,6.11,6.35,9.28-.59.22-.91.45-1.22.45-3.71.03-7.41,0-11.12.03-1.02,0-1.62-.48-2.15-1.28-2.65-4.02-5.33-8.01-8-12.01-.7-1.05-1.39-2.1-2.09-3.14-.39-.58-.91-.93-1.66-.92-2.45.03-4.89.02-7.34.04-.21,0-.42.11-.61.16-.52.6-.34,1.29-.34,1.94-.02,4.23,0,8.45-.01,12.68,0,2.49-.04,2.53-2.44,2.54-2.52.01-5.04.01-7.56,0-.57,0-1.15-.09-1.7-.14-.12-.32-.26-.52-.26-.72-.01-17.42-.02-34.84-.02-52.26,0-.28.11-.56.19-.95.47-.05.89-.15,1.32-.15,8.45,0,16.9-.1,25.34.06,4.44.08,8.61,1.39,12.18,4.17,2.52,1.96,4.21,4.54,5.16,7.6,1.12,3.59,1.08,9.13-.11,12.69-.64,1.93-1.63,3.62-3.06,5.09-1.82,1.88-3.77,3.55-6.19,4.61-.33.14-.61.38-1.19.74ZM-384.39,1018.08c.58.04,1.02.1,1.46.1,3.56,0,7.12-.04,10.67.01,1.53.02,2.94-.34,4.31-.92,1.23-.52,2.31-1.26,3.06-2.46,1.63-2.63,1.57-5.35.47-8.08-.38-.93-1.02-1.8-1.97-2.35-1.83-1.05-3.74-1.77-5.88-1.76-3.63,0-7.26,0-10.89,0-.42,0-.85.1-1.25.15-.11.33-.23.53-.23.73-.01,4.6-.01,9.19,0,13.79,0,.2.13.41.26.78Z"/>
    <path class="st9" d="M-285.67,1018.99c-.1,6.24-1.95,11.88-5.73,16.77-3.27,4.23-7.37,7.48-12.5,9.28-2.67.93-5.35,1.7-8.21,1.68-.44,0-.88.1-1.32.16-.37.05-.74.19-1.09.15-3.36-.41-6.77-.51-10.02-1.71-3.02-1.11-5.8-2.62-8.35-4.55-5.33-4.03-8.35-9.51-9.82-15.91-.65-2.83-.76-5.75-.47-8.62.52-5.02,2.26-9.64,5.22-13.75,3.45-4.79,8.09-7.99,13.6-9.93,4.25-1.49,8.69-1.9,13.14-1.46,5.57.55,10.67,2.54,15.06,6.02,5.23,4.15,8.6,9.54,9.82,16.16.35,1.88.45,3.81.66,5.71ZM-314.61,1002.11c-.44,0-.88,0-1.32,0-3.98.1-7.35,1.7-10.08,4.49-2.77,2.83-4.35,6.36-4.73,10.3-.44,4.5.61,8.67,3.22,12.41,1.8,2.58,4.22,4.3,7.1,5.46,3.19,1.29,6.45,1.52,9.79.73,2.11-.5,4.12-1.34,5.81-2.67,3.05-2.4,5.09-5.51,6.08-9.32.51-1.98.48-3.96.43-5.96-.08-3.29-1.18-6.33-3.14-8.87-3.28-4.23-7.51-6.9-13.15-6.58Z"/>
    <path class="st5" d="M-410.29,998.27c-.3.58-.45,1.01-.72,1.34-1.89,2.28-3.8,4.55-5.71,6.8-.23.27-.55.46-.91.74-.42-.25-.81-.43-1.15-.69-2.55-1.98-5.35-3.46-8.54-4.07-8.79-1.67-15.44,2.06-18.72,10.1-.7,1.73-1.07,3.54-.97,5.42.1,1.92-.06,3.82.41,5.74,1.4,5.73,4.9,9.52,10.33,11.6.95.37,2,.62,3.02.68,2.59.16,5.18.21,7.73-.42,2.03-.5,3.89-1.36,5.67-2.57.17-2.46.09-4.88.07-7.42-.62-.11-1.11-.26-1.6-.26-2.6-.02-5.19-.01-7.79-.01-.52,0-1.04,0-1.55-.05-.6-.06-.94-.4-.99-1.01-.06-.66-.05-1.33-.05-2,0-2-.02-4.01.01-6.01.02-1.15.33-1.43,1.45-1.5.3-.02.59,0,.89,0,6.38,0,12.76,0,19.13,0,.58,0,1.16.08,1.86.13.08.5.2.91.2,1.33.01,6.97,0,13.95.03,20.92,0,.99-.29,1.71-1.09,2.27-3.52,2.49-7.19,4.72-11.34,6.02-2.33.73-4.7,1.31-7.17,1.35-.44,0-.88.1-1.32.16-.37.05-.73.18-1.09.17-5.99-.18-11.79-1.09-16.96-4.39-6.17-3.94-10.03-9.53-11.75-16.62-.58-2.38-.93-4.83-.82-7.25.13-3.09.54-6.17,1.59-9.14,1.42-3.98,3.55-7.52,6.52-10.47,3.52-3.51,7.72-5.98,12.57-7.21,4.35-1.1,8.75-1.18,13.21-.6,2.6.34,5.07,1,7.51,1.89,2.96,1.08,5.48,2.87,8.03,5.02Z"/>
    <path class="st5" d="M-275.93,992.08c2.96-.3,9.98-.22,11.65.11.33.73.19,1.55.2,2.34.01,8.82,0,17.64,0,26.47,0,1.04,0,2.08.01,3.11.04,2.18.54,4.27,1.49,6.2,1.13,2.28,2.95,3.89,5.35,4.75,2.94,1.06,5.92,1.14,8.92.18,3.26-1.04,5.43-3.18,6.57-6.4.63-1.77.85-3.58.85-5.45-.02-9.56,0-19.13,0-28.69,0-.81.03-1.61.04-2.47.37-.13.64-.29.91-.29,3.41-.01,6.82,0,10.23,0,.14,0,.28.08.42.13.52.46.37,1.09.37,1.66.01,3.63,0,7.27,0,10.9,0,6.6.09,13.2-.05,19.79-.09,4.25-1.08,8.37-3.17,12.12-2.41,4.33-6.11,7.15-10.76,8.77-2.53.88-5.12,1.44-7.82,1.38-1.48-.03-2.96,0-4.45-.01-4.1-.04-7.91-1.19-11.36-3.33-4.56-2.82-7.41-6.96-8.62-12.18-.55-2.38-.92-4.78-.92-7.24,0-9.93,0-19.87,0-29.8,0-.65.08-1.3.13-2.06Z"/>
    <path class="st9" d="M-204.77,1029.75c-.05,1.02-.11,1.74-.11,2.47,0,3.71,0,7.41,0,11.12,0,.59,0,1.19-.04,1.78-.05.6-.38.91-1,1-.29.04-.59.05-.89.05-2.74,0-5.48,0-8.22,0-.22,0-.45,0-.67-.03-.77-.09-1.07-.37-1.13-1.11-.04-.52-.03-1.04-.03-1.55,0-16.38,0-32.76,0-49.13v-2.08c.51-.13.92-.31,1.33-.32,1.93-.03,3.85-.02,5.78-.02,5.11,0,10.22,0,15.34,0,3.21,0,6.3.54,9.3,1.74,5.58,2.23,9.15,6.25,10.47,12.05,1.11,4.86.89,9.71-1.54,14.24-1.89,3.53-4.83,5.93-8.43,7.57-3.56,1.62-7.32,2.27-11.21,2.24-2.22-.02-4.44,0-6.67,0-.66,0-1.32,0-2.27,0ZM-204.81,1018.76c.37.17.5.27.63.27,3.55.01,7.1.11,10.64-.02,1.87-.07,3.57-.87,4.96-2.21,2.51-2.41,2.87-5.35,2.12-8.57-.3-1.27-.98-2.27-1.91-3.18-1.82-1.79-4.14-2.26-6.5-2.39-2.87-.15-5.76-.05-8.65-.03-.41,0-.83.17-1.29.27v15.86Z"/>
    <path class="st3" d="M-244.33,838.35c23.02,0,45.76,0,68.6,0,.07.63.16,1.05.17,1.47.01,2.22,0,4.45,0,6.67,0,18.39,0,36.77,0,55.16,0,1.26,0,2.52,0,3.89-.81-1.51-.76-3.08-1.03-4.58-1.25-6.84-3.63-13.28-6.74-19.47-3.89-7.74-8.78-14.76-14.95-20.88-7.59-7.52-16.46-13.04-26.4-16.9-5.68-2.21-11.5-3.89-17.58-4.59-.51-.06-1.02-.19-1.52-.31-.11-.03-.2-.16-.56-.48Z"/>
    <path class="st2" d="M-204.49,977.2c.41-1.12,1.18-1.49,1.76-2,4.22-3.65,8.08-7.64,11.5-12.05,7.26-9.36,11.99-19.88,14.41-31.46.38-1.8.72-3.61,1.27-5.4,0,8.46,0,16.92,0,25.38,0,8.43,0,16.87,0,25.26-.44.14-.64.25-.85.25-9.26,0-18.52,0-28.09,0Z"/>
  </g>
  <g>
    <path class="st7" d="M-10.15,839.09c1.87-.31,30.12-.32,32.17,0,.19,1.57.06,3.19.08,4.81.02,1.56,0,3.12,0,4.67v38.5c0,1.56,0,3.12,0,4.67.01,1.61-.06,3.23.06,4.91.42.05.7.12.98.12,18.31,0,36.61,0,54.89,0,.51-.87.29-1.71.29-2.5.02-17.58.01-35.16.01-52.74,0-.8.03-1.61.04-2.3.18-.16.23-.22.29-.25.06-.04.13-.08.2-.08,10.16-.02,20.31-.04,30.47-.05.36,0,.73.04,1.21.08.07.45.17.86.2,1.28.03.52,0,1.04,0,1.56,0,44.28,0,88.56,0,132.84v2.75c-.53.09-.94.22-1.36.22-9.86.01-19.72,0-29.58,0-.43,0-.86-.06-1.42-.1-.13-1.88-.05-3.64-.07-5.4-.01-1.78,0-3.56,0-5.34v-36.94c0-1.78,0-3.56,0-5.34,0-1.76-.02-3.53-.03-5.11-.21-.23-.26-.3-.32-.33-.06-.04-.14-.05-.21-.05-18.24-.01-36.48-.03-54.72-.04-.21,0-.43.06-.64.1-.49.52-.31,1.14-.31,1.7-.02,4.75,0,9.49,0,14.24,0,13.35,0,26.7,0,40.05,0,.8.14,1.62-.19,2.37-1.76.24-28.56.32-31.97.09-.07-.37-.19-.77-.22-1.19-.04-.52-.01-1.04-.01-1.56,0-44.36,0-88.71,0-133.07,0-.87-.12-1.76.13-2.59Z"/>
    <path class="st7" d="M296.08,882.22c3.67-10.26,9.59-18.84,16-26.95-.09-.89-.71-1.11-1.16-1.46-9.03-6.77-19.07-11.35-30.11-13.71-1.81-.39-3.65-.63-5.47-.97-.63-.12-1.26-.29-1.85-.63h101.14c-.72.49-1.48.56-2.25.67-13.63,1.99-26,7.03-36.82,15.61-14.33,11.36-23.69,25.96-27.89,43.79-1.64,6.97-2.3,14.05-1.88,21.2,1.03,17.44,7.03,32.92,18.36,46.29,2.88,3.4,6.02,6.55,9.45,9.4.49.41.94.87,1.36,1.26-.17.55-.51.46-.77.46-6.67.02-13.35,0-20.02.05-1.16,0-1.94-.4-2.63-1.32-2.9-3.85-5.8-7.7-8.37-11.79-2.33-3.71-4.34-7.59-5.98-11.66-.28-.68-.59-1.35-.95-2.18-.49.29-.95.48-1.32.78-2.73,2.18-5.59,4.16-8.66,5.82-9.3,5.03-19.18,6.36-29.52,4.54-6.05-1.06-11.76-3.09-16.88-6.54-11-7.4-18-17.62-20.26-30.68-4.6-26.51,13.5-49.53,37.62-53.44,13.37-2.17,25.44,1.01,36.17,9.28.82.63,1.62,1.28,2.71,2.15Z"/>
    <path class="st7" d="M383.31,870.1c25.2.08,46.03,20.33,46.04,46.01,0,26.42-21.56,46.08-45.91,46.1-24.83.02-45.97-20.03-46.04-45.98-.06-25.51,20.57-45.98,45.91-46.14Z"/>
    <path class="st7" d="M126.51,838.96c.5-.04.86-.1,1.21-.1,9.04-.21,28.74-.1,30.87.17.05.05.12.09.16.15.04.06.07.14.07.2.02,45.68.04,91.36.06,137.05,0,.29-.06.58-.1.97-.37.06-.71.18-1.06.18-10.08,0-20.16,0-30.25,0-.22,0-.44-.05-.79-.09-.07-.39-.19-.79-.22-1.21-.04-.52-.01-1.04-.01-1.56,0-44.35,0-88.7,0-133.05,0-.87.04-1.74.06-2.73Z"/>
    <path class="st7" d="M255.69,838.75c-.64.13-1.27.3-1.91.39-12.56,1.81-24.08,6.29-34.33,13.78-16.87,12.33-27.51,28.78-31.06,49.38-4.13,23.98,1.88,45.44,17.44,64.16,2.66,3.2,5.65,6.08,8.83,8.77.56.47,1.09.97,1.81,1.6-.41.17-.64.34-.88.35-.67.04-1.33.02-2,.02-11.5,0-22.99,0-34.49,0-.8,0-1.62.13-2.44-.2-.08-.31-.2-.58-.22-.87-.19-2.72-.02-135.9.18-137.43.36-.08.77-.2,1.19-.26.29-.04.59-.01.89-.01,25.36,0,50.73,0,76.09,0,.3,0,.59,0,.89,0,0,.1,0,.2,0,.3Z"/>
    <path class="st7" d="M391.33,838.35c23.02,0,45.76,0,68.6,0,.07.63.16,1.05.17,1.47.01,2.22,0,4.45,0,6.67,0,18.39,0,36.77,0,55.16,0,1.26,0,2.52,0,3.89-.81-1.51-.76-3.08-1.03-4.58-1.25-6.84-3.63-13.28-6.74-19.47-3.89-7.74-8.78-14.76-14.95-20.88-7.59-7.52-16.46-13.04-26.4-16.9-5.68-2.21-11.5-3.89-17.58-4.59-.51-.06-1.02-.19-1.52-.31-.11-.03-.2-.16-.56-.48Z"/>
    <path class="st7" d="M431.17,977.2c.41-1.12,1.18-1.49,1.76-2,4.22-3.65,8.08-7.64,11.5-12.05,7.26-9.36,11.99-19.88,14.41-31.46.38-1.8.72-3.61,1.27-5.4,0,8.46,0,16.92,0,25.38,0,8.43,0,16.87,0,25.26-.44.14-.64.25-.85.25-9.26,0-18.52,0-28.09,0Z"/>
  </g>
  <g>
    <path class="st7" d="M643.82,841.3l-53.08,132.43h-27.81l-53.08-132.43h24.72c2.67,0,4.82.62,6.45,1.86,1.63,1.24,2.88,2.83,3.73,4.77l25.63,70.89c1.21,3.09,2.39,6.47,3.55,10.13,1.15,3.67,2.24,7.5,3.27,11.5.85-4,1.8-7.83,2.86-11.5,1.06-3.66,2.19-7.04,3.41-10.13l25.45-70.89c.67-1.7,1.86-3.22,3.59-4.59,1.73-1.36,3.86-2.05,6.41-2.05h24.9Z"/>
    <path class="st7" d="M761.98,973.72h-23.81c-2.67,0-4.82-.62-6.45-1.86-1.63-1.24-2.88-2.83-3.73-4.77l-7.82-23.09h-50.35l-7.82,23.09c-.67,1.7-1.86,3.23-3.59,4.59-1.73,1.36-3.86,2.04-6.41,2.04h-23.99l51.26-132.43h31.45l51.26,132.43ZM713.17,923.1l-12.27-36.27c-.91-2.3-1.88-5.01-2.91-8.13-1.03-3.12-2.06-6.5-3.09-10.14-.91,3.7-1.88,7.12-2.91,10.27-1.03,3.15-2,5.88-2.91,8.18l-12.18,36.08h36.27Z"/>
    <path class="st7" d="M824.24,949.45c4.12,0,7.8-.68,11.04-2.04s5.98-3.32,8.22-5.86,3.95-5.65,5.14-9.31,1.77-7.83,1.77-12.5v-78.44h30.72v78.44c0,8.12-1.32,15.57-3.95,22.36-2.64,6.79-6.41,12.63-11.31,17.54s-10.88,8.73-17.9,11.45c-7.03,2.73-14.94,4.09-23.72,4.09s-16.79-1.36-23.81-4.09c-7.03-2.73-13-6.54-17.9-11.45-4.91-4.91-8.67-10.75-11.27-17.54-2.61-6.79-3.91-14.24-3.91-22.36v-78.44h30.72v78.35c0,4.67.59,8.83,1.77,12.5s2.89,6.79,5.14,9.36c2.24,2.58,4.98,4.54,8.22,5.91s6.92,2.04,11.04,2.04Z"/>
    <path class="st7" d="M984.93,949.18v24.54h-79.8v-132.43h30.72v107.89h49.08Z"/>
    <path class="st7" d="M1080.27,865.66h-37.26v108.07h-30.72v-108.07h-37.26v-24.36h105.25v24.36Z"/>
  </g>
  <g>
    <path class="st7" d="M-366.25,1938.56c1.87-.31,30.12-.32,32.17,0,.19,1.57.06,3.19.08,4.81.02,1.56,0,3.12,0,4.67v38.5c0,1.56,0,3.12,0,4.67.01,1.61-.06,3.23.06,4.91.42.05.7.12.98.12,18.31,0,36.61,0,54.89,0,.51-.87.29-1.71.29-2.5.02-17.58.01-35.16.01-52.74,0-.8.03-1.61.04-2.3.18-.16.23-.22.29-.25.06-.04.13-.08.2-.08,10.16-.02,20.31-.04,30.47-.05.36,0,.73.04,1.21.08.07.45.17.86.2,1.28.03.52,0,1.04,0,1.56,0,44.28,0,88.56,0,132.84v2.75c-.53.09-.94.22-1.36.22-9.86.01-19.72,0-29.58,0-.43,0-.86-.06-1.42-.1-.13-1.88-.05-3.64-.07-5.4-.01-1.78,0-3.56,0-5.34v-36.94c0-1.78,0-3.56,0-5.34,0-1.76-.02-3.53-.03-5.11-.21-.23-.26-.3-.32-.33-.06-.04-.14-.05-.21-.05-18.24-.01-36.48-.03-54.72-.04-.21,0-.43.06-.64.1-.49.52-.31,1.14-.31,1.7-.02,4.75,0,9.49,0,14.24,0,13.35,0,26.7,0,40.05,0,.8.14,1.62-.19,2.37-1.76.24-28.56.32-31.97.09-.07-.37-.19-.77-.22-1.19-.04-.52-.01-1.04-.01-1.56,0-44.36,0-88.71,0-133.07,0-.87-.12-1.76.13-2.59Z"/>
    <path class="st7" d="M-60.03,1981.69c3.67-10.26,9.59-18.84,16-26.95-.09-.89-.71-1.11-1.16-1.46-9.03-6.77-19.07-11.35-30.11-13.71-1.81-.39-3.65-.63-5.47-.97-.63-.12-1.26-.29-1.85-.63H18.52c-.72.49-1.48.56-2.25.67-13.63,1.99-26,7.03-36.82,15.61-14.33,11.36-23.69,25.96-27.89,43.79-1.64,6.97-2.3,14.05-1.88,21.2,1.03,17.44,7.03,32.92,18.36,46.29,2.88,3.4,6.02,6.55,9.45,9.4.49.41.94.87,1.36,1.26-.17.55-.51.46-.77.46-6.67.02-13.35,0-20.02.05-1.16,0-1.94-.4-2.63-1.32-2.9-3.85-5.8-7.7-8.37-11.79-2.33-3.71-4.34-7.59-5.98-11.66-.28-.68-.59-1.35-.95-2.18-.49.29-.95.48-1.32.78-2.73,2.18-5.59,4.16-8.66,5.82-9.3,5.03-19.18,6.36-29.52,4.54-6.05-1.06-11.76-3.09-16.88-6.54-11-7.4-18-17.62-20.26-30.68-4.6-26.51,13.5-49.53,37.62-53.44,13.37-2.17,25.44,1.01,36.17,9.28.82.63,1.62,1.28,2.71,2.15Z"/>
    <path class="st7" d="M27.21,1969.58c25.2.08,46.03,20.33,46.04,46.01,0,26.42-21.56,46.08-45.91,46.1-24.83.02-45.97-20.03-46.04-45.98-.06-25.51,20.57-45.98,45.91-46.14Z"/>
    <path class="st7" d="M-229.6,1938.44c.5-.04.86-.1,1.21-.1,9.04-.21,28.74-.1,30.87.17.05.05.12.09.16.15.04.06.07.14.07.2.02,45.68.04,91.36.06,137.05,0,.29-.06.58-.1.97-.37.06-.71.18-1.06.18-10.08,0-20.16,0-30.25,0-.22,0-.44-.05-.79-.09-.07-.39-.19-.79-.22-1.21-.04-.52-.01-1.04-.01-1.56,0-44.35,0-88.7,0-133.05,0-.87.04-1.74.06-2.73Z"/>
    <path class="st7" d="M-100.42,1938.23c-.64.13-1.27.3-1.91.39-12.56,1.81-24.08,6.29-34.33,13.78-16.87,12.33-27.51,28.78-31.06,49.38-4.13,23.98,1.88,45.44,17.44,64.16,2.66,3.2,5.65,6.08,8.83,8.77.56.47,1.09.97,1.81,1.6-.41.17-.64.34-.88.35-.67.04-1.33.02-2,.02-11.5,0-22.99,0-34.49,0-.8,0-1.62.13-2.44-.2-.08-.31-.2-.58-.22-.87-.19-2.72-.02-135.9.18-137.43.36-.08.77-.2,1.19-.26.29-.04.59-.01.89-.01,25.36,0,50.73,0,76.09,0,.3,0,.59,0,.89,0,0,.1,0,.2,0,.3Z"/>
    <path class="st7" d="M35.22,1937.82c23.02,0,45.76,0,68.6,0,.07.63.16,1.05.17,1.47.01,2.22,0,4.45,0,6.67,0,18.39,0,36.77,0,55.16,0,1.26,0,2.52,0,3.89-.81-1.51-.76-3.08-1.03-4.58-1.25-6.84-3.63-13.28-6.74-19.47-3.89-7.74-8.78-14.76-14.95-20.88-7.59-7.52-16.46-13.04-26.4-16.9-5.68-2.21-11.5-3.89-17.58-4.59-.51-.06-1.02-.19-1.52-.31-.11-.03-.2-.16-.56-.48Z"/>
    <path class="st7" d="M75.07,2076.68c.41-1.12,1.18-1.49,1.76-2,4.22-3.65,8.08-7.64,11.5-12.05,7.26-9.36,11.99-19.88,14.41-31.46.38-1.8.72-3.61,1.27-5.4,0,8.46,0,16.92,0,25.38,0,8.43,0,16.87,0,25.26-.44.14-.64.25-.85.25-9.26,0-18.52,0-28.09,0Z"/>
  </g>
  <g>
    <path class="st7" d="M284.72,1940.77l-53.08,132.43h-27.81l-53.08-132.43h24.72c2.67,0,4.82.62,6.45,1.86,1.63,1.24,2.88,2.83,3.73,4.77l25.63,70.89c1.21,3.09,2.39,6.47,3.55,10.13,1.15,3.67,2.24,7.5,3.27,11.5.85-4,1.8-7.83,2.86-11.5,1.06-3.66,2.19-7.04,3.41-10.13l25.45-70.89c.67-1.7,1.86-3.22,3.59-4.59,1.73-1.36,3.86-2.05,6.41-2.05h24.9Z"/>
    <path class="st7" d="M402.88,2073.2h-23.81c-2.67,0-4.82-.62-6.45-1.86-1.63-1.24-2.88-2.83-3.73-4.77l-7.82-23.09h-50.35l-7.82,23.09c-.67,1.7-1.86,3.23-3.59,4.59-1.73,1.36-3.86,2.04-6.41,2.04h-23.99l51.26-132.43h31.45l51.26,132.43ZM354.07,2022.57l-12.27-36.27c-.91-2.3-1.88-5.01-2.91-8.13-1.03-3.12-2.06-6.5-3.09-10.14-.91,3.7-1.88,7.12-2.91,10.27-1.03,3.15-2,5.88-2.91,8.18l-12.18,36.08h36.27Z"/>
    <path class="st7" d="M465.14,2048.93c4.12,0,7.8-.68,11.04-2.04s5.98-3.32,8.22-5.86,3.95-5.65,5.14-9.31,1.77-7.83,1.77-12.5v-78.44h30.72v78.44c0,8.12-1.32,15.57-3.95,22.36-2.64,6.79-6.41,12.63-11.31,17.54s-10.88,8.73-17.9,11.45c-7.03,2.73-14.94,4.09-23.72,4.09s-16.79-1.36-23.81-4.09c-7.03-2.73-13-6.54-17.9-11.45-4.91-4.91-8.67-10.75-11.27-17.54-2.61-6.79-3.91-14.24-3.91-22.36v-78.44h30.72v78.35c0,4.67.59,8.83,1.77,12.5s2.89,6.79,5.14,9.36c2.24,2.58,4.98,4.54,8.22,5.91s6.92,2.04,11.04,2.04Z"/>
    <path class="st7" d="M625.83,2048.66v24.54h-79.8v-132.43h30.72v107.89h49.08Z"/>
    <path class="st7" d="M721.17,1965.13h-37.26v108.07h-30.72v-108.07h-37.26v-24.36h105.25v24.36Z"/>
  </g>
  <g>
    <path class="st7" d="M-225.83,2199.67c1.87-.31,30.12-.32,32.17,0,.19,1.57.06,3.19.08,4.81.02,1.56,0,3.12,0,4.67v38.5c0,1.56,0,3.12,0,4.67.01,1.61-.06,3.23.06,4.91.42.05.7.12.98.12,18.31,0,36.61,0,54.89,0,.51-.87.29-1.71.29-2.5.02-17.58.01-35.16.01-52.74,0-.8.03-1.61.04-2.3.18-.16.23-.22.29-.25.06-.04.13-.08.2-.08,10.16-.02,20.31-.04,30.47-.05.36,0,.73.04,1.21.08.07.45.17.86.2,1.28.03.52,0,1.04,0,1.56,0,44.28,0,88.56,0,132.84v2.75c-.53.09-.94.22-1.36.22-9.86.01-19.72,0-29.58,0-.43,0-.86-.06-1.42-.1-.13-1.88-.05-3.64-.07-5.4-.01-1.78,0-3.56,0-5.34v-36.94c0-1.78,0-3.56,0-5.34,0-1.76-.02-3.53-.03-5.11-.21-.23-.26-.3-.32-.33-.06-.04-.14-.05-.21-.05-18.24-.01-36.48-.03-54.72-.04-.21,0-.43.06-.64.1-.49.52-.31,1.14-.31,1.7-.02,4.75,0,9.49,0,14.24,0,13.35,0,26.7,0,40.05,0,.8.14,1.62-.19,2.37-1.76.24-28.56.32-31.97.09-.07-.37-.19-.77-.22-1.19-.04-.52-.01-1.04-.01-1.56,0-44.36,0-88.71,0-133.07,0-.87-.12-1.76.13-2.59Z"/>
    <path class="st7" d="M80.4,2242.8c3.67-10.26,9.59-18.84,16-26.95-.09-.89-.71-1.11-1.16-1.46-9.03-6.77-19.07-11.35-30.11-13.71-1.81-.39-3.65-.63-5.47-.97-.63-.12-1.26-.29-1.85-.63h101.14c-.72.49-1.48.56-2.25.67-13.63,1.99-26,7.03-36.82,15.61-14.33,11.36-23.69,25.96-27.89,43.79-1.64,6.97-2.3,14.05-1.88,21.2,1.03,17.44,7.03,32.92,18.36,46.29,2.88,3.4,6.02,6.55,9.45,9.4.49.41.94.87,1.36,1.26-.17.55-.51.46-.77.46-6.67.02-13.35,0-20.02.05-1.16,0-1.94-.4-2.63-1.32-2.9-3.85-5.8-7.7-8.37-11.79-2.33-3.71-4.34-7.59-5.98-11.66-.28-.68-.59-1.35-.95-2.18-.49.29-.95.48-1.32.78-2.73,2.18-5.59,4.16-8.66,5.82-9.3,5.03-19.18,6.36-29.52,4.54-6.05-1.06-11.76-3.09-16.88-6.54-11-7.4-18-17.62-20.26-30.68-4.6-26.51,13.5-49.53,37.62-53.44,13.37-2.17,25.44,1.01,36.17,9.28.82.63,1.62,1.28,2.71,2.15Z"/>
    <path class="st7" d="M167.63,2230.68c25.2.08,46.03,20.33,46.04,46.01,0,26.42-21.56,46.08-45.91,46.1-24.83.02-45.97-20.03-46.04-45.98-.06-25.51,20.57-45.98,45.91-46.14Z"/>
    <path class="st7" d="M-89.17,2199.54c.5-.04.86-.1,1.21-.1,9.04-.21,28.74-.1,30.87.17.05.05.12.09.16.15.04.06.07.14.07.2.02,45.68.04,91.36.06,137.05,0,.29-.06.58-.1.97-.37.06-.71.18-1.06.18-10.08,0-20.16,0-30.25,0-.22,0-.44-.05-.79-.09-.07-.39-.19-.79-.22-1.21-.04-.52-.01-1.04-.01-1.56,0-44.35,0-88.7,0-133.05,0-.87.04-1.74.06-2.73Z"/>
    <path class="st7" d="M40.01,2199.33c-.64.13-1.27.3-1.91.39-12.56,1.81-24.08,6.29-34.33,13.78-16.87,12.33-27.51,28.78-31.06,49.38-4.13,23.98,1.88,45.44,17.44,64.16,2.66,3.2,5.65,6.08,8.83,8.77.56.47,1.09.97,1.81,1.6-.41.17-.64.34-.88.35-.67.04-1.33.02-2,.02-11.5,0-22.99,0-34.49,0-.8,0-1.62.13-2.44-.2-.08-.31-.2-.58-.22-.87-.19-2.72-.02-135.9.18-137.43.36-.08.77-.2,1.19-.26.29-.04.59-.01.89-.01,25.36,0,50.73,0,76.09,0,.3,0,.59,0,.89,0,0,.1,0,.2,0,.3Z"/>
    <path class="st7" d="M175.65,2198.93c23.02,0,45.76,0,68.6,0,.07.63.16,1.05.17,1.47.01,2.22,0,4.45,0,6.67,0,18.39,0,36.77,0,55.16,0,1.26,0,2.52,0,3.89-.81-1.51-.76-3.08-1.03-4.58-1.25-6.84-3.63-13.28-6.74-19.47-3.89-7.74-8.78-14.76-14.95-20.88-7.59-7.52-16.46-13.04-26.4-16.9-5.68-2.21-11.5-3.89-17.58-4.59-.51-.06-1.02-.19-1.52-.31-.11-.03-.2-.16-.56-.48Z"/>
    <path class="st7" d="M215.49,2337.78c.41-1.12,1.18-1.49,1.76-2,4.22-3.65,8.08-7.64,11.5-12.05,7.26-9.36,11.99-19.88,14.41-31.46.38-1.8.72-3.61,1.27-5.4,0,8.46,0,16.92,0,25.38,0,8.43,0,16.87,0,25.26-.44.14-.64.25-.85.25-9.26,0-18.52,0-28.09,0Z"/>
  </g>
  <g>
    <path class="st7" d="M-114.45,2361.52l-43.71,109.06h-22.9l-43.71-109.06h20.36c2.19,0,3.97.51,5.31,1.54,1.35,1.02,2.37,2.33,3.07,3.93l21.11,58.38c1,2.55,1.97,5.33,2.92,8.35.95,3.02,1.85,6.18,2.69,9.47.7-3.29,1.48-6.45,2.36-9.47.87-3.02,1.81-5.8,2.81-8.35l20.96-58.38c.55-1.4,1.54-2.66,2.96-3.78,1.42-1.12,3.18-1.69,5.28-1.69h20.51Z"/>
    <path class="st7" d="M-17.14,2470.58h-19.61c-2.2,0-3.97-.51-5.32-1.54-1.35-1.02-2.37-2.33-3.07-3.93l-6.44-19.01h-41.47l-6.44,19.01c-.55,1.4-1.54,2.66-2.96,3.78-1.42,1.12-3.18,1.68-5.28,1.68h-19.76l42.21-109.06h25.9l42.21,109.06ZM-57.34,2428.89l-10.11-29.87c-.75-1.9-1.55-4.13-2.39-6.7-.85-2.57-1.7-5.35-2.55-8.35-.75,3.05-1.55,5.86-2.39,8.46-.85,2.59-1.65,4.84-2.4,6.74l-10.03,29.72h29.87Z"/>
    <path class="st7" d="M34.13,2450.59c3.39,0,6.42-.56,9.09-1.68s4.93-2.73,6.77-4.83,3.26-4.65,4.23-7.67,1.46-6.45,1.46-10.29v-64.6h25.3v64.6c0,6.69-1.09,12.82-3.26,18.41-2.17,5.59-5.28,10.4-9.32,14.45s-8.96,7.19-14.74,9.43c-5.79,2.25-12.3,3.37-19.54,3.37s-13.82-1.12-19.61-3.37c-5.79-2.25-10.7-5.39-14.74-9.43-4.04-4.04-7.14-8.86-9.28-14.45-2.15-5.59-3.22-11.73-3.22-18.41v-64.6H12.57v64.52c0,3.84.49,7.27,1.46,10.29s2.38,5.59,4.23,7.71c1.85,2.12,4.1,3.74,6.77,4.86s5.7,1.68,9.09,1.68Z"/>
    <path class="st7" d="M166.46,2450.37v20.21h-65.72v-109.06h25.3v88.85h40.42Z"/>
    <path class="st7" d="M244.98,2381.58h-30.69v89h-25.3v-89h-30.69v-20.06h86.67v20.06Z"/>
  </g>
  <g>
    <path class="st7" d="M1695.6,1242.31l-53.87-176.31h34.28l44.08,144.97,44.81-144.97h34.28l-53.87,176.31h-49.71Z"/>
    <path class="st7" d="M1788.17,1242.31l53.87-176.31h49.71l53.87,176.31h-34.28l-48-155.5h6.37l-47.26,155.5h-34.28ZM1820.5,1205.58v-31.1h93.05v31.1h-93.05Z"/>
    <path class="st7" d="M2034.52,1245.99c-14.2,0-26.69-2.88-37.47-8.63s-19.18-13.85-25.22-24.3c-6.04-10.45-9.06-22.74-9.06-36.86v-109.95l33.79-.25v109.95c0,5.8.98,11.06,2.94,15.79,1.96,4.74,4.67,8.82,8.14,12.25,3.47,3.43,7.51,6.06,12.12,7.9,4.61,1.84,9.53,2.76,14.75,2.76s10.39-.94,15-2.82c4.61-1.88,8.63-4.53,12.06-7.96s6.1-7.51,8.02-12.25c1.92-4.73,2.88-9.96,2.88-15.67v-109.95h33.8v110.2c0,14.12-3.02,26.41-9.06,36.86-6.04,10.45-14.45,18.55-25.22,24.3s-23.27,8.63-37.47,8.63Z"/>
    <path class="st7" d="M2143,1242.31v-176.31h33.3v145.22h75.91v31.1h-109.22Z"/>
    <path class="st7" d="M2289.45,1242.31v-145.22h-55.59v-31.1h144.48v31.1h-55.59v145.22h-33.3Z"/>
  </g>
  <path class="st7" d="M2114.36,759.67c13.28,0,25.56,2.25,36.85,6.74,11.45,4.49,21.41,10.82,29.88,18.97,8.46,8.15,15.02,17.64,19.67,28.46,4.82,10.82,7.22,22.63,7.22,35.45s-2.41,24.46-7.22,35.45c-4.65,10.98-11.2,20.64-19.67,28.96-8.47,8.15-18.42,14.56-29.88,19.22-11.29,4.49-23.57,6.74-36.85,6.74s-25.65-2.25-37.1-6.74c-11.29-4.66-21.17-11.07-29.63-19.22-8.47-8.32-15.11-17.97-19.92-28.96-4.65-10.98-6.97-22.8-6.97-35.45s2.32-24.63,6.97-35.45c4.81-10.98,11.45-20.47,19.92-28.46,8.46-8.15,18.34-14.48,29.63-18.97,11.45-4.49,23.82-6.74,37.1-6.74ZM2114.85,792.87c-7.3,0-14.27,1.41-20.91,4.24-6.47,2.83-12.2,6.82-17.18,11.98-4.82,5.16-8.63,11.15-11.45,17.97-2.82,6.82-4.23,14.23-4.23,22.22s1.41,15.48,4.23,22.47c2.82,6.82,6.72,12.9,11.7,18.22,4.98,5.16,10.71,9.24,17.18,12.23,6.47,2.83,13.36,4.24,20.66,4.24s14.11-1.41,20.42-4.24c6.47-3,12.12-7.07,16.93-12.23,4.82-5.33,8.55-11.4,11.2-18.22,2.82-6.99,4.23-14.48,4.23-22.47s-1.41-15.39-4.23-22.22c-2.65-6.82-6.39-12.81-11.2-17.97-4.81-5.16-10.46-9.15-16.93-11.98-6.31-2.83-13.11-4.24-20.42-4.24Z"/>
  <path class="st7" d="M1996.37,815.59c-5.81-7.16-12.78-12.73-20.92-16.73-8.13-4.16-16.27-6.24-24.4-6.24-7.47,0-14.44,1.41-20.92,4.24-6.31,2.83-11.96,6.82-16.93,11.98-4.82,4.99-8.55,10.9-11.21,17.72-2.66,6.82-3.98,14.23-3.98,22.22s1.33,15.14,3.98,21.97c2.66,6.82,6.39,12.81,11.21,17.97,4.98,4.99,10.62,8.99,16.93,11.98,6.48,2.83,13.45,4.24,20.92,4.24,7.97,0,15.94-1.83,23.9-5.49,7.97-3.83,15.11-8.9,21.42-15.23l23.16,24.21c-6.14,6.32-13.11,11.82-20.92,16.48-7.64,4.66-15.69,8.32-24.16,10.98-8.47,2.5-16.94,3.74-25.4,3.74-13.12,0-25.23-2.25-36.36-6.74-10.96-4.66-20.59-11.07-28.89-19.22-8.14-8.32-14.53-17.97-19.18-28.96-4.65-10.98-6.97-22.88-6.97-35.7s2.32-24.38,6.97-35.2c4.65-10.82,11.2-20.3,19.67-28.46,8.47-8.15,18.26-14.48,29.38-18.97,11.29-4.49,23.58-6.74,36.86-6.74,8.47,0,16.85,1.16,25.15,3.49,8.47,2.33,16.35,5.66,23.66,9.99,7.47,4.16,14.11,9.32,19.92,15.48l-22.91,26.96Z"/>
  <path class="st7" d="M1798.47,759.67h39.86v179.99h-39.86v-179.99Z"/>
  <path class="st7" d="M1612.44,759.67h40.1v75.79h80.46v-75.79h40.1v179.99h-40.1v-71.98h-80.46v71.98h-40.1v-179.99Z"/>
  <g>
    <path class="st1" d="M230.97,36.95c5.46,0,10.51.92,15.16,2.77,4.71,1.85,8.81,4.45,12.29,7.8,3.48,3.35,6.18,7.26,8.09,11.7,1.98,4.45,2.97,9.31,2.97,14.58s-.99,10.06-2.97,14.58c-1.91,4.52-4.61,8.49-8.09,11.91-3.48,3.35-7.58,5.99-12.29,7.91-4.64,1.85-9.69,2.77-15.16,2.77s-10.55-.92-15.26-2.77c-4.64-1.92-8.71-4.55-12.19-7.91-3.48-3.42-6.21-7.39-8.19-11.91-1.91-4.52-2.87-9.38-2.87-14.58s.96-10.13,2.87-14.58c1.98-4.52,4.71-8.42,8.19-11.7,3.48-3.35,7.54-5.96,12.19-7.8,4.71-1.85,9.8-2.77,15.26-2.77ZM231.17,50.6c-3,0-5.87.58-8.6,1.75-2.66,1.16-5.02,2.81-7.07,4.93-1.98,2.12-3.55,4.59-4.71,7.39-1.16,2.81-1.74,5.85-1.74,9.14s.58,6.37,1.74,9.24c1.16,2.81,2.76,5.3,4.81,7.5,2.05,2.12,4.4,3.8,7.07,5.03,2.66,1.16,5.5,1.75,8.5,1.75s5.8-.58,8.4-1.75c2.66-1.23,4.98-2.91,6.96-5.03,1.98-2.19,3.52-4.69,4.61-7.5,1.16-2.87,1.74-5.96,1.74-9.24s-.58-6.33-1.74-9.14c-1.09-2.81-2.63-5.27-4.61-7.39-1.98-2.12-4.3-3.76-6.96-4.93-2.59-1.16-5.39-1.75-8.4-1.75Z"/>
    <path class="st1" d="M182.44,59.95c-2.39-2.94-5.26-5.24-8.6-6.88-3.35-1.71-6.69-2.57-10.04-2.57-3.07,0-5.94.58-8.6,1.75-2.59,1.16-4.92,2.81-6.96,4.93-1.98,2.05-3.52,4.48-4.61,7.29-1.09,2.81-1.64,5.85-1.64,9.14s.55,6.23,1.64,9.04c1.09,2.81,2.63,5.27,4.61,7.39,2.05,2.05,4.37,3.7,6.96,4.93,2.66,1.16,5.53,1.75,8.6,1.75,3.28,0,6.55-.75,9.83-2.26,3.28-1.57,6.21-3.66,8.81-6.26l9.53,9.96c-2.53,2.6-5.39,4.86-8.6,6.78-3.14,1.92-6.45,3.42-9.94,4.52-3.48,1.03-6.97,1.54-10.45,1.54-5.39,0-10.38-.92-14.95-2.77-4.51-1.92-8.47-4.55-11.88-7.91-3.35-3.42-5.98-7.39-7.89-11.91-1.91-4.52-2.87-9.41-2.87-14.68s.96-10.03,2.87-14.48c1.91-4.45,4.61-8.35,8.09-11.7,3.48-3.35,7.51-5.96,12.09-7.8,4.64-1.85,9.7-2.77,15.16-2.77,3.48,0,6.93.48,10.34,1.44,3.48.96,6.73,2.33,9.73,4.11,3.07,1.71,5.8,3.83,8.19,6.37l-9.42,11.09Z"/>
    <path class="st1" d="M101.05,36.95h16.39v74.03h-16.39V36.95Z"/>
    <path class="st1" d="M24.54,36.95h16.49v31.17h33.09v-31.17h16.49v74.03h-16.49v-29.61h-33.09v29.61h-16.49V36.95Z"/>
    <g>
      <path class="st1" d="M325.6,108.75l-32.49-70.42h15.93l19.81,48,20.02-48h15.93l-32.49,70.42h-6.71Z"/>
      <path class="st1" d="M347.33,108.54l32.38-70.63h6.81l32.38,70.63h-15.93l-19.7-48.42-20.02,48.42h-15.93ZM363.57,94.29v-11.21h39.3v11.21h-39.3Z"/>
      <path class="st1" d="M449.77,110.01c-5.59,0-10.65-1.17-15.2-3.51-4.54-2.34-8.16-5.69-10.85-10.06-2.69-4.37-4.03-9.59-4.03-15.67v-42.65h13.52v41.92c0,3.77.7,6.92,2.1,9.43,1.4,2.52,3.35,4.39,5.87,5.61,2.52,1.22,5.38,1.83,8.59,1.83s6.06-.61,8.54-1.83c2.48-1.22,4.44-3.09,5.87-5.61,1.43-2.52,2.15-5.66,2.15-9.43v-41.92h13.52v42.65c0,6.08-1.35,11.3-4.03,15.67-2.69,4.37-6.29,7.72-10.79,10.06-4.51,2.34-9.59,3.51-15.25,3.51Z"/>
      <path class="st1" d="M491.33,108.54V38.33h13.52v57.95h35.42v12.26h-48.94Z"/>
      <path class="st1" d="M528.35,50.17v-11.84h57.85v11.84h-57.85ZM550.47,108.54V38.33h13.52v70.21h-13.52Z"/>
    </g>
  </g>
</svg>