<?xml version="1.0" encoding="UTF-8"?>
<svg id="Layer_1" data-name="Layer 1" xmlns="http://www.w3.org/2000/svg" viewBox="0 0 2220.36 283.02">
  <defs>
    <style>
      .cls-1 {
        fill: #2c53ab;
      }

      .cls-2 {
        fill: #ff5f2c;
      }
    </style>
  </defs>
  <path class="cls-2" d="M789.22,0c20.88,0,40.19,3.53,57.94,10.6,18.01,7.07,33.67,17.01,46.98,29.83,13.31,12.82,23.62,27.74,30.93,44.75,7.57,17.01,11.36,35.59,11.36,55.74s-3.79,38.47-11.36,55.74c-7.31,17.27-17.62,32.45-30.93,45.53-13.31,12.82-28.97,22.9-46.98,30.23-17.75,7.07-37.06,10.6-57.94,10.6s-40.32-3.53-58.33-10.6c-17.75-7.33-33.28-17.4-46.59-30.23-13.31-13.08-23.76-28.26-31.32-45.53-7.31-17.27-10.96-35.85-10.96-55.74s3.65-38.73,10.96-55.74c7.57-17.27,18.01-32.19,31.32-44.75,13.31-12.82,28.84-22.77,46.59-29.83,18.01-7.07,37.45-10.6,58.33-10.6ZM790,52.21c-11.48,0-22.44,2.22-32.88,6.67-10.18,4.45-19.19,10.73-27.01,18.84-7.57,8.11-13.57,17.53-18.01,28.26-4.44,10.73-6.66,22.37-6.66,34.94s2.22,24.34,6.66,35.33c4.44,10.73,10.57,20.28,18.4,28.66,7.83,8.11,16.83,14.52,27.01,19.23,10.18,4.45,21.01,6.67,32.49,6.67s22.19-2.22,32.11-6.67c10.18-4.71,19.05-11.12,26.62-19.23,7.57-8.37,13.44-17.93,17.62-28.66,4.44-10.99,6.66-22.77,6.66-35.33s-2.22-24.21-6.66-34.94c-4.17-10.73-10.05-20.15-17.62-28.26-7.57-8.11-16.44-14.39-26.62-18.84-9.92-4.45-20.62-6.67-32.11-6.67Z"/>
  <path class="cls-2" d="M603.7,87.93c-9.13-11.25-20.1-20.02-32.89-26.3-12.79-6.54-25.58-9.81-38.37-9.81-11.75,0-22.71,2.22-32.89,6.67-9.92,4.45-18.8,10.73-26.63,18.84-7.57,7.85-13.44,17.14-17.62,27.87-4.18,10.73-6.26,22.37-6.26,34.94s2.09,23.81,6.26,34.54c4.18,10.73,10.05,20.15,17.62,28.26,7.83,7.85,16.71,14.13,26.63,18.84,10.18,4.45,21.14,6.67,32.89,6.67,12.53,0,25.06-2.88,37.59-8.64,12.53-6.02,23.76-14,33.68-23.94l36.42,38.08c-9.66,9.94-20.62,18.58-32.89,25.91-12.01,7.33-24.67,13.08-37.98,17.27-13.32,3.93-26.63,5.89-39.94,5.89-20.63,0-39.68-3.53-57.17-10.6-17.23-7.33-32.37-17.4-45.42-30.23-12.79-13.08-22.84-28.26-30.15-45.53-7.31-17.27-10.97-35.98-10.97-56.13s3.65-38.34,10.97-55.35c7.31-17.01,17.62-31.93,30.94-44.75,13.31-12.82,28.71-22.77,46.2-29.83,17.76-7.07,37.07-10.6,57.96-10.6,13.31,0,26.49,1.83,39.55,5.5,13.32,3.66,25.71,8.9,37.2,15.7,11.75,6.54,22.19,14.65,31.33,24.34l-36.02,42.39Z"/>
  <path class="cls-2" d="M292.52,0h62.68v283.02h-62.68V0Z"/>
  <path class="cls-2" d="M0,0h63.06v119.17h126.51V0h63.06v283.02h-63.06v-113.19H63.06v113.19H0V0Z"/>
  <g>
    <path class="cls-1" d="M1128.66,268.11L1042.51,9.52h54.82l70.48,212.61,71.66-212.61h54.82l-86.15,258.58h-79.49Z"/>
    <path class="cls-1" d="M1276.67,268.11L1362.82,9.52h79.49l86.15,258.58h-54.82l-76.75-228.05h10.18l-75.57,228.05h-54.82ZM1328.36,214.24v-45.61h148.8v45.61h-148.8Z"/>
    <path class="cls-1" d="M1670.59,273.49c-22.71,0-42.68-4.22-59.91-12.66-17.23-8.44-30.67-20.32-40.33-35.65-9.66-15.32-14.49-33.34-14.49-54.05V9.88l54.04-.36v161.25c0,8.5,1.57,16.22,4.7,23.17,3.13,6.94,7.47,12.93,13.02,17.96,5.54,5.03,12.01,8.89,19.38,11.58,7.37,2.69,15.24,4.04,23.59,4.04s16.61-1.37,23.98-4.13c7.37-2.75,13.8-6.64,19.29-11.67,5.48-5.03,9.75-11.01,12.82-17.96,3.06-6.94,4.6-14.6,4.6-22.98V9.52h54.04v161.61c0,20.71-4.83,38.73-14.49,54.05-9.66,15.33-23.1,27.21-40.33,35.65-17.23,8.44-37.2,12.66-59.91,12.66Z"/>
    <path class="cls-1" d="M1844.06,268.11V9.52h53.25v212.97h121.39v45.61h-174.64Z"/>
    <path class="cls-1" d="M2078.22,268.11V55.14h-88.89V9.52h231.03v45.61h-88.89v212.97h-53.25Z"/>
  </g>
</svg>