<?xml version="1.0" encoding="utf-8"?>
<!-- Generator: Adobe Illustrator 19.0.0, SVG Export Plug-In . SVG Version: 6.00 Build 0)  -->
<svg version="1.1" id="Ebene_2" xmlns="http://www.w3.org/2000/svg" x="0px" y="0px"
	 viewBox="0 0 741.9 169.9" style="enable-background:new 0 0 741.9 169.9;" xml:space="preserve">
<style type="text/css">
	.st0{fill:#494849;}
	.st1{fill:#F1891F;}
</style>
<path class="st0" d="M69.1,84c-1.4-1.1-2.9-2-4.6-2.6c2.3-1.2,4.5-3.1,6.6-5.9l28.7-39.2H80.3c-2.2,0-4.1,0.3-5.6,1
	c-1.5,0.6-2.9,1.8-4.2,3.5L48.8,72.5c-1.5,2.1-3.9,3.1-7.2,3.1H38V36.4H15.5v96.9H38V92.1h5.5c2.1,0,3.7,0.3,5,0.8
	c1.2,0.5,2.2,1.4,3,2.6l21.9,33.7c0.4,0.7,0.9,1.3,1.4,1.8c0.5,0.5,1.1,0.9,1.7,1.3c0.7,0.4,1.5,0.6,2.4,0.8c0.9,0.2,2,0.3,3.3,0.3
	h20.1L73,88.4C71.8,86.6,70.5,85.2,69.1,84z"/>
<path class="st0" d="M169.8,45.5c-3.2-2.8-7.2-5.1-12.1-6.7c-4.9-1.6-10.8-2.4-17.6-2.4h-34.2v96.9h22.5v-32.4h11.7
	c6.7,0,12.5-0.8,17.4-2.4c4.9-1.6,8.9-3.9,12.1-6.7c3.2-2.9,5.6-6.3,7.1-10.4c1.6-4,2.3-8.5,2.3-13.3c0-4.5-0.8-8.6-2.3-12.5
	C175.3,51.7,172.9,48.4,169.8,45.5z M152.7,79.8c-2.6,2.8-6.8,4.2-12.6,4.2h-11.7V53.3h11.7c2.8,0,5.3,0.4,7.3,1.1
	c2.1,0.7,3.8,1.7,5.1,3c1.4,1.3,2.4,2.9,3,4.7c0.7,1.8,1,3.8,1,6.1C156.6,73.1,155.3,77,152.7,79.8z"/>
<rect x="186.9" y="36.4" class="st0" width="22.6" height="96.9"/>
<path class="st1" d="M459,108.3c0.5,0,1.1,0.1,1.6,0.3c0.5,0.2,1,0.5,1.5,1l8.9,9.4c-3.9,5.1-8.8,8.9-14.7,11.5
	c-5.9,2.6-12.8,3.9-20.8,3.9c-7.4,0-14-1.3-19.8-3.8c-5.8-2.5-10.8-6-14.8-10.4c-4.1-4.4-7.2-9.6-9.3-15.7
	c-2.2-6.1-3.3-12.6-3.3-19.7c0-7.2,1.2-13.9,3.5-19.9c2.3-6.1,5.7-11.3,9.9-15.7c4.3-4.4,9.4-7.8,15.3-10.2
	c5.9-2.4,12.5-3.7,19.6-3.7c3.6,0,7.1,0.3,10.3,1c3.2,0.6,6.2,1.5,9,2.7c2.8,1.1,5.4,2.5,7.7,4.1c2.3,1.6,4.4,3.3,6.3,5.2l-7.6,10.2
	c-0.5,0.6-1.1,1.2-1.7,1.7c-0.7,0.5-1.6,0.8-2.8,0.8c-0.8,0-1.6-0.2-2.3-0.5c-0.7-0.4-1.5-0.8-2.3-1.3c-0.8-0.5-1.7-1.1-2.6-1.7
	s-2.1-1.2-3.4-1.7c-1.3-0.5-2.8-0.9-4.6-1.3c-1.8-0.4-3.8-0.5-6.2-0.5c-3.7,0-7.1,0.7-10.2,2.1c-3.1,1.4-5.7,3.4-8,6
	c-2.2,2.6-4,5.9-5.2,9.7c-1.2,3.8-1.8,8.2-1.8,13.1c0,5,0.7,9.4,2,13.2c1.4,3.9,3.2,7.1,5.5,9.7c2.3,2.6,5,4.6,8.1,6s6.4,2.1,10,2.1
	c2,0,3.9-0.1,5.6-0.3s3.3-0.5,4.7-1c1.5-0.5,2.8-1.1,4.1-1.9c1.3-0.8,2.6-1.8,3.9-3c0.5-0.4,1.1-0.8,1.7-1.1
	C457.7,108.4,458.3,108.3,459,108.3z"/>
<path class="st1" d="M561.8,36.4v96.9h-22.6v-41h-39.4v41h-22.6V36.4h22.6v40.5h39.4V36.4H561.8z"/>
<path class="st1" d="M663.9,133.3h-17.4c-2,0-3.5-0.5-4.7-1.4c-1.2-0.9-2.1-2.1-2.7-3.5l-5.7-16.9h-36.8l-5.7,16.9
	c-0.5,1.2-1.4,2.4-2.6,3.4c-1.3,1-2.8,1.5-4.7,1.5h-17.6l37.5-96.9h23L663.9,133.3z M628.2,96.3l-9-26.5c-0.7-1.7-1.4-3.7-2.1-6
	c-0.8-2.3-1.5-4.8-2.3-7.4c-0.7,2.7-1.4,5.2-2.1,7.5c-0.8,2.3-1.5,4.3-2.1,6l-8.9,26.4H628.2z"/>
<path class="st1" d="M728.2,54.3h-27.3v79.1h-22.5V54.3h-27.3V36.4h77V54.3z"/>
<g>
	<polygon class="st1" points="276.2,36.9 263.9,25.6 247.6,10.6 247.3,32.7 247.3,36.9 232.5,36.9 232.5,103.8 345.7,103.8 
		345.7,36.9 	"/>
	<polygon class="st0" points="323.4,133.1 335.7,144.4 352,159.3 352.3,137.2 352.3,133.1 367.1,133.1 367.1,66.1 253.9,66.1 
		253.9,133.1 	"/>
</g>
</svg>
