<svg width="24" height="24" viewBox="0 0 24 24" fill="none" xmlns="http://www.w3.org/2000/svg">
    <g clip-path="url(#goxwrchxea)">
        <path d="M29.565.527h-2.311v22.85h2.31V.527zm6.279 6.888H33.54v15.963h2.303V7.415zm.42-5a1.67 1.67 0 0 0-.276-1.211 1.568 1.568 0 0 0-1.025-.655 1.535 1.535 0 0 0-1.172.286 1.635 1.635 0 0 0-.634 1.059c-.067.426.033.861.277 1.211.244.35.613.586 1.025.655.412.069.834-.034 1.172-.286.34-.253.567-.633.634-1.059zM17.349 19.466a9.015 9.015 0 0 1-5.735 2.059c-5.09.009-9.218-4.256-9.218-9.526a9.7 9.7 0 0 1 2.034-5.978L2.738 4.265A12.17 12.17 0 0 0 0 11.999c0 6.628 5.2 12 11.613 12 2.822 0 5.408-1.037 7.418-2.768l-1.683-1.765z" fill="#54565A"/>
        <path d="M20.932 23.386h3.199L20.68 19.5A12.213 12.213 0 0 0 23.227 12c0-6.627-5.2-12-11.613-12A11.28 11.28 0 0 0 6.72 1.117a11.645 11.645 0 0 0-3.98 3.149l1.69 1.756a9.253 9.253 0 0 1 3.205-2.626 8.95 8.95 0 0 1 3.988-.93c5.099 0 9.226 4.265 9.226 9.534 0 3.028-1.364 5.728-3.491 7.466l1.583 1.644.066.078.017.018 1.909 2.18z" fill="#009845"/>
    </g>
    <defs>
        <clipPath id="goxwrchxea">
            <path fill="#fff" d="M0 0h24v24H0z"/>
        </clipPath>
    </defs>
</svg>
