<svg version="1.2" xmlns="http://www.w3.org/2000/svg" viewBox="0 0 38 38" width="38" height="38">
	<title>qlikCommunity-logo-new-svg</title>
	<style>
		.s0 { fill: #54565a } 
		.s1 { fill: #009845 } 
	</style>
	<g id="Layer">
		<g id="Layer">
			<g id="Layer">
				<path id="Layer" class="s0" d="m16.5 26.7c-6 0-10.8-4.9-10.8-10.8 0-2.6 0.8-4.9 2.3-6.7l-2-2c-1.9 2.3-3.1 5.4-3.1 8.7 0 7.5 6.1 13.6 13.5 13.6 3.3 0 6.3-1.2 8.6-3.1l-1.9-2c-1.8 1.4-4.1 2.3-6.6 2.3z"/>
				<path id="Layer" class="s1" d="m26.9 24.5l0.2-0.1c1.8-2.3 2.9-5.3 2.9-8.5 0-7.5-6.1-13.6-13.5-13.6-3.3 0-6.2 1.1-8.6 3-0.7 0.6-1.3 1.2-1.8 1.8l-0.1 0.1 2 2 0.1-0.1c0.5-0.6 1.1-1.2 1.8-1.8 1.8-1.4 4.1-2.2 6.6-2.2 5.9 0 10.8 4.9 10.8 10.8 0 2.6-0.9 4.9-2.3 6.7q-0.8 1-1.8 1.8c0 0-0.1 0-0.1 0.1l2 2 2.3 2.3h3.8z"/>
			</g>
		</g>
	</g>
</svg>