<?xml version="1.0" encoding="UTF-8"?>
<svg id="Ebene_1" xmlns="http://www.w3.org/2000/svg" version="1.1" viewBox="0 0 595.28 841.89">
  <!-- Generator: Adobe Illustrator 29.2.1, SVG Export Plug-In . SVG Version: 2.1.0 Build 116)  -->
  <defs>
    <style>
      .st0, .st1 {
        fill: none;
      }

      .st1 {
        stroke: #13334c;
        stroke-miterlimit: 10;
      }

      .st2 {
        fill: #2c53ab;
      }

      .st3 {
        fill: #37474f;
      }

      .st4 {
        fill: #fff;
      }

      .st5 {
        fill: #263339;
      }

      .st6 {
        fill: #13334c;
      }

      .st7 {
        opacity: .1;
      }

      .st8 {
        fill: #1f5078;
      }

      .st9 {
        fill: #465b64;
      }

      .st10 {
        fill: #de5225;
      }

      .st11 {
        fill: #f0871e;
      }

      .st12 {
        fill: #ff5f2c;
      }
    </style>
  </defs>
  <path class="st8" d="M326.4,212.9l-32.06,5.16-.35.06-.36-.06-32.06-5.16c-.27-1.2-.18-2.93.11-4.86.36-2.5,1.05-5.29,1.67-7.56.13-.45.29-.88.5-1.28,1.05-2.11,3.08-3.59,5.48-3.91,16.78-2.16,23.6-2.04,24.8-1.98.01-.01.03-.01.06,0,1.9-.06,8.9-.01,24.44,2,2.85.36,5.21,2.4,5.97,5.18,1.12,4.03,2.4,9.67,1.79,12.42Z"/>
  <path class="st6" d="M378.78,227.98l-84.84-2.62-84.84,2.62s2.28-11.72,6.35-14.11c4.03-2.37,69.35-5.85,78.49-5.46,9.2-.38,74.46,3.08,78.49,5.46,4.08,2.39,6.35,14.11,6.35,14.11Z"/>
  <path class="st6" d="M257.96,490.51c.12,3.32,3,30.67,5.66,33.46,2.66,2.79,13.73,7.45,22.1,8.7,11.11,1.65,26.2-2.55,32.07-7.03,5.86-4.48,9.42-36.23,7.76-37.68-1.66-1.44-19.74-10.27-32.99-10.27-15.56,0-34.71,9.82-34.6,12.82Z"/>
  <path class="st8" d="M262.8,521.41c4.16,2.12,8.46,3.95,12.86,5.47,4.4,1.5,8.99,2.63,13.64,2.54,4.65-.04,9.27-.84,13.8-1.9,4.52-1.12,9-2.46,13.37-4.09-4.32,1.77-8.78,3.2-13.31,4.33-4.54,1.1-9.17,1.95-13.86,2.03-4.71.04-9.33-1.14-13.73-2.68-4.41-1.54-8.69-3.46-12.78-5.71Z"/>
  <path class="st8" d="M262.18,517.78c4.33,2.21,8.82,4.12,13.41,5.71,4.59,1.56,9.37,2.74,14.22,2.65,4.85-.04,9.67-.88,14.39-1.98,4.72-1.16,9.38-2.56,13.94-4.27-4.51,1.84-9.15,3.33-13.88,4.51-4.73,1.15-9.55,2.04-14.45,2.11-4.91.05-9.72-1.18-14.31-2.79-4.6-1.61-9.06-3.61-13.33-5.94Z"/>
  <path class="st8" d="M261.67,514.39c4.49,2.29,9.13,4.27,13.89,5.92,4.75,1.62,9.71,2.84,14.73,2.75,5.02-.04,10.01-.91,14.91-2.06,4.89-1.21,9.72-2.66,14.43-4.42-4.67,1.9-9.48,3.44-14.38,4.66-4.9,1.19-9.9,2.11-14.96,2.19-5.09.05-10.07-1.22-14.82-2.89-4.76-1.66-9.38-3.73-13.81-6.15Z"/>
  <path class="st8" d="M262.12,511.29c4.49,2.29,9.13,4.27,13.89,5.92,4.75,1.62,9.71,2.84,14.73,2.75,5.02-.04,10.01-.91,14.91-2.06,4.89-1.21,9.72-2.66,14.43-4.42-4.67,1.9-9.48,3.44-14.38,4.66-4.9,1.19-9.9,2.11-14.96,2.19-5.09.05-10.07-1.22-14.82-2.89-4.77-1.66-9.38-3.73-13.81-6.15Z"/>
  <path class="st8" d="M261.62,507.69c4.65,2.37,9.45,4.43,14.37,6.13,4.92,1.68,10.05,2.94,15.26,2.85,5.2-.04,10.37-.95,15.43-2.13,5.06-1.25,10.06-2.75,14.94-4.58-4.83,1.97-9.82,3.56-14.89,4.82-5.07,1.23-10.25,2.18-15.49,2.26-5.27.05-10.42-1.26-15.34-2.98-4.93-1.72-9.71-3.86-14.29-6.37Z"/>
  <path class="st8" d="M260.8,503.75c4.77,2.44,9.71,4.55,14.76,6.3,5.05,1.72,10.32,3.02,15.67,2.93,5.34-.04,10.65-.97,15.85-2.19,5.19-1.28,10.33-2.83,15.35-4.71-4.96,2.02-10.08,3.65-15.29,4.95-5.21,1.26-10.52,2.24-15.91,2.32-5.41.05-10.7-1.3-15.75-3.06-5.07-1.77-9.98-3.97-14.68-6.53Z"/>
  <path class="st5" d="M260.16,500c4.95,2.53,10.08,4.73,15.33,6.55,5.25,1.79,10.72,3.14,16.27,3.04,5.55-.05,11.06-1.01,16.46-2.28,5.39-1.33,10.73-2.94,15.93-4.9-5.16,2.09-10.47,3.79-15.88,5.14-5.41,1.31-10.93,2.32-16.52,2.41-5.61.06-11.11-1.34-16.35-3.18-5.26-1.84-10.36-4.12-15.25-6.78Z"/>
  <path class="st5" d="M259.29,496.4c5.09,2.61,10.35,4.86,15.74,6.73,5.39,1.84,11.01,3.23,16.72,3.13,5.7-.05,11.36-1.04,16.91-2.34,5.54-1.37,11.02-3.02,16.37-5.03-5.3,2.15-10.76,3.89-16.31,5.27-5.55,1.34-11.22,2.38-16.97,2.47-5.77.06-11.41-1.38-16.8-3.26-5.4-1.89-10.64-4.23-15.66-6.96Z"/>
  <path class="st12" d="M345.3,407.57c.4-2.45-.95-4.82-3.14-5.58-16.23-5.64-36.53-8.82-49.38-8.85h-.22c-12.86.04-33.16,3.22-49.39,8.85-2.19.76-3.54,3.13-3.14,5.58,2.46,15.12,4.63,67.43,16.85,90.78,6.78,12.97,33.21,13.04,35.68,12.99h.22c2.47.04,28.88-.03,35.68-12.99,12.21-23.35,14.38-75.66,16.84-90.78Z"/>
  <polygon class="st7" points="267.58 396.32 268.3 410.34 268.93 424.37 270.01 452.42 270.85 480.48 271.19 494.52 271.42 508.55 270.69 494.53 270.07 480.51 268.99 452.45 268.15 424.39 267.81 410.36 267.58 396.32"/>
  <path class="st7" d="M263.56,404.77c.27,1.21-.45,2.65-1.81,3.05-.66.2-1.43.13-2.08-.23-.64-.37-1.12-1.03-1.27-1.77-.15-.74.03-1.54.48-2.13.45-.59,1.14-.95,1.83-1.02,1.41-.16,2.63.89,2.85,2.11ZM263.56,404.77c-.13-.61-.52-1.16-1.05-1.45-.53-.29-1.16-.33-1.69-.16-1.09.36-1.62,1.51-1.41,2.45.17.95,1.1,1.81,2.25,1.71.56-.05,1.12-.33,1.5-.8.38-.48.53-1.13.41-1.75Z"/>
  <path class="st7" d="M264.53,421.58c.27,1.21-.45,2.65-1.81,3.05-.66.2-1.43.13-2.08-.23-.64-.37-1.12-1.03-1.27-1.77-.15-.74.03-1.54.48-2.13.45-.59,1.14-.95,1.83-1.02,1.41-.16,2.63.89,2.85,2.11ZM264.53,421.58c-.13-.61-.52-1.16-1.05-1.45-.53-.29-1.16-.33-1.69-.16-1.09.36-1.62,1.51-1.41,2.45.17.95,1.1,1.81,2.25,1.71.56-.05,1.12-.33,1.5-.8.38-.48.53-1.13.41-1.75Z"/>
  <path class="st7" d="M265.14,439.43c.27,1.21-.45,2.65-1.81,3.05-.66.2-1.43.13-2.08-.23-.64-.37-1.12-1.03-1.27-1.77-.15-.74.03-1.54.48-2.13.45-.59,1.14-.95,1.83-1.02,1.41-.16,2.63.89,2.85,2.11ZM265.14,439.43c-.13-.61-.52-1.16-1.05-1.45-.53-.29-1.16-.33-1.69-.16-1.09.35-1.62,1.51-1.41,2.45.17.95,1.1,1.81,2.25,1.71.56-.05,1.12-.33,1.5-.8.38-.48.53-1.13.41-1.75Z"/>
  <path class="st7" d="M265.75,457.27c.27,1.21-.45,2.65-1.81,3.05-.66.2-1.43.13-2.08-.23-.64-.37-1.12-1.03-1.27-1.77-.15-.74.03-1.54.48-2.13.45-.59,1.14-.95,1.83-1.02,1.41-.16,2.63.89,2.85,2.11ZM265.75,457.27c-.13-.61-.52-1.16-1.05-1.45-.53-.29-1.16-.33-1.69-.16-1.09.36-1.62,1.51-1.41,2.45.17.95,1.1,1.81,2.25,1.71.56-.05,1.12-.33,1.5-.8.38-.48.53-1.13.41-1.75Z"/>
  <path class="st7" d="M266.36,475.12c.27,1.21-.45,2.65-1.81,3.05-.66.2-1.43.13-2.08-.23-.64-.37-1.12-1.03-1.27-1.77-.15-.74.03-1.54.48-2.13.45-.59,1.14-.95,1.83-1.02,1.41-.16,2.63.89,2.85,2.11ZM266.36,475.12c-.13-.61-.52-1.16-1.05-1.45-.53-.29-1.16-.33-1.69-.16-1.09.36-1.62,1.51-1.41,2.45.17.95,1.1,1.81,2.25,1.71.56-.05,1.12-.33,1.5-.8.38-.48.53-1.13.41-1.75Z"/>
  <path class="st7" d="M266.98,492.96c.27,1.21-.45,2.65-1.81,3.05-.66.2-1.43.13-2.08-.23-.64-.37-1.12-1.03-1.27-1.77-.15-.74.03-1.54.48-2.13.45-.59,1.14-.95,1.83-1.02,1.41-.16,2.63.9,2.85,2.11ZM266.98,492.96c-.13-.61-.52-1.16-1.05-1.45-.53-.29-1.16-.33-1.69-.16-1.09.36-1.62,1.51-1.41,2.45.17.95,1.1,1.81,2.25,1.71.56-.05,1.12-.33,1.5-.8.38-.48.53-1.13.41-1.75Z"/>
  <path class="st6" d="M268.49,376.13c.08,2.36,2.14,21.81,4.03,23.79,1.89,1.98,9.76,5.3,15.71,6.18,7.9,1.18,18.63-1.81,22.8-5,4.17-3.18,6.7-25.76,5.52-26.79-1.18-1.03-14.04-7.31-23.45-7.31-11.06,0-24.68,6.98-24.6,9.12Z"/>
  <path class="st8" d="M271.93,398.1c2.96,1.5,6.02,2.81,9.15,3.89,3.13,1.07,6.39,1.87,9.7,1.81,3.31-.03,6.59-.6,9.81-1.35,3.22-.79,6.4-1.75,9.51-2.91-3.07,1.26-6.24,2.27-9.46,3.08-3.22.78-6.52,1.39-9.85,1.44-3.35.03-6.63-.81-9.76-1.9-3.14-1.1-6.18-2.46-9.09-4.06Z"/>
  <path class="st8" d="M271.49,395.52c3.08,1.57,6.27,2.93,9.53,4.06,3.26,1.11,6.66,1.95,10.11,1.88,3.45-.03,6.87-.63,10.23-1.41,3.35-.83,6.67-1.82,9.91-3.03-3.2,1.31-6.51,2.36-9.87,3.2-3.36.81-6.79,1.45-10.27,1.5-3.49.03-6.91-.84-10.17-1.98-3.27-1.14-6.44-2.57-9.48-4.23Z"/>
  <path class="st8" d="M271.13,393.11c3.19,1.63,6.49,3.04,9.87,4.21,3.38,1.15,6.9,2.02,10.47,1.95,3.57-.03,7.12-.65,10.6-1.46,3.47-.86,6.91-1.89,10.26-3.14-3.32,1.35-6.74,2.45-10.22,3.32-3.48.84-7.04,1.5-10.64,1.56-3.62.04-7.16-.87-10.53-2.05-3.39-1.18-6.67-2.66-9.82-4.37Z"/>
  <path class="st8" d="M271.45,390.9c3.19,1.63,6.49,3.04,9.87,4.21,3.38,1.15,6.9,2.02,10.47,1.95,3.57-.03,7.12-.65,10.6-1.46,3.47-.86,6.91-1.89,10.26-3.14-3.32,1.35-6.74,2.45-10.22,3.32-3.48.84-7.04,1.5-10.64,1.56-3.62.04-7.16-.87-10.53-2.05-3.39-1.18-6.67-2.66-9.81-4.37Z"/>
  <path class="st8" d="M271.1,388.34c3.3,1.69,6.72,3.15,10.22,4.36,3.5,1.19,7.15,2.09,10.85,2.02,3.7-.03,7.37-.67,10.97-1.52,3.6-.89,7.15-1.96,10.62-3.26-3.44,1.4-6.98,2.53-10.58,3.43-3.6.87-7.28,1.55-11.01,1.61-3.74.04-7.41-.9-10.91-2.12-3.51-1.23-6.91-2.75-10.16-4.53Z"/>
  <path class="st5" d="M270.51,385.54c3.39,1.73,6.9,3.24,10.49,4.48,3.59,1.23,7.34,2.15,11.14,2.08,3.8-.03,7.57-.69,11.27-1.56,3.69-.91,7.35-2.01,10.91-3.35-3.53,1.44-7.17,2.6-10.87,3.52-3.7.9-7.48,1.59-11.31,1.65-3.84.04-7.61-.92-11.2-2.18-3.6-1.26-7.09-2.82-10.44-4.65Z"/>
  <path class="st5" d="M270.06,382.88c3.52,1.8,7.16,3.36,10.9,4.65,3.73,1.27,7.62,2.23,11.57,2.16,3.94-.03,7.86-.72,11.7-1.62,3.84-.95,7.63-2.09,11.33-3.48-3.67,1.49-7.45,2.69-11.29,3.65-3.84.93-7.77,1.65-11.74,1.71-3.99.04-7.9-.96-11.63-2.26-3.74-1.31-7.37-2.93-10.84-4.82Z"/>
  <path class="st5" d="M269.44,380.31c3.62,1.85,7.36,3.46,11.19,4.78,3.83,1.31,7.83,2.29,11.88,2.22,4.05-.03,8.08-.74,12.02-1.66,3.94-.97,7.83-2.15,11.64-3.58-3.77,1.53-7.65,2.76-11.6,3.75-3.95.95-7.98,1.69-12.06,1.76-4.1.04-8.11-.98-11.94-2.32-3.84-1.34-7.57-3.01-11.14-4.95Z"/>
  <path class="st11" d="M387.58,379.7c.03-.29,5.97-1.34,11.66-2.28,6.11-1.01,10.88-5.83,11.84-11.95l7.7-49.6c1.02-6.59-2.63-13.01-8.82-15.5l-15.81-6.36-6.58,85.68Z"/>
  <path class="st6" d="M387.58,379.7c.03-.29,5.97-1.34,11.66-2.28,6.11-1.01,10.88-5.83,11.84-11.95l7.7-49.6c1.02-6.59-2.63-13.01-8.82-15.5l-15.81-6.36-6.58,85.68Z"/>
  <path class="st11" d="M200,378.03c-.04-.29-6.02-1.13-11.74-1.87-6.14-.8-11.08-5.45-12.24-11.53l-9.4-49.3c-1.25-6.55,2.18-13.1,8.28-15.8l15.58-6.9,9.52,85.41Z"/>
  <path class="st6" d="M200,378.03c-.04-.29-6.02-1.13-11.74-1.87-6.14-.8-11.08-5.45-12.24-11.53l-9.4-49.3c-1.25-6.55,2.18-13.1,8.28-15.8l15.58-6.9,9.52,85.41Z"/>
  <path class="st12" d="M388.06,391.89s11.42-62.63,13.1-160.69c0,0-118.31-18.45-214.9-1.11,0,0,4.34,124.04,12.43,158.77,0,0,98.76,5.18,189.37,3.03Z"/>
  <path class="st7" d="M288.02,222.74c.01,14.01.06,28.02.18,42.03l.43,42.03.47-.52-47.66,3.47-23.82,1.84-23.81,1.95,23.85-1.42,23.84-1.53,47.67-3.29.48-.03v-.48s-.7-42.03-.7-42.03c-.25-14.01-.58-28.02-.94-42.02Z"/>
  <path class="st7" d="M294.63,229.07c.71.05,1.43.39,1.91.98.49.58.7,1.4.58,2.16-.13.76-.59,1.47-1.23,1.87-.64.4-1.44.5-2.12.32-1.41-.36-2.2-1.8-1.97-3.05.18-1.25,1.38-2.38,2.84-2.27ZM292.28,233.11c.41.48,1,.74,1.57.77,1.18.06,2.1-.87,2.24-1.84.17-.97-.41-2.13-1.54-2.45-.55-.16-1.19-.09-1.73.23-.53.32-.91.9-1.02,1.53-.1.63.08,1.3.49,1.77Z"/>
  <path class="st7" d="M294.3,246.33c.71.05,1.43.39,1.91.98.49.58.7,1.4.58,2.16-.13.76-.59,1.47-1.23,1.87-.64.4-1.44.5-2.12.32-1.41-.36-2.2-1.8-1.97-3.05.18-1.25,1.38-2.38,2.84-2.27ZM291.95,250.37c.41.48,1,.74,1.57.77,1.18.06,2.1-.87,2.24-1.84.17-.97-.41-2.13-1.54-2.45-.55-.16-1.19-.09-1.73.23-.53.32-.91.9-1.02,1.53-.1.63.08,1.3.49,1.77Z"/>
  <path class="st7" d="M294.38,264.63c.71.05,1.43.39,1.91.98.49.58.7,1.4.58,2.16-.13.76-.59,1.47-1.23,1.87-.64.4-1.44.5-2.12.32-1.41-.36-2.2-1.8-1.97-3.05.18-1.25,1.38-2.38,2.84-2.27ZM292.03,268.68c.41.48,1,.74,1.57.77,1.18.06,2.1-.86,2.24-1.84.17-.97-.41-2.13-1.54-2.45-.55-.16-1.19-.09-1.73.23-.53.32-.91.9-1.02,1.53-.1.63.08,1.3.49,1.77Z"/>
  <path class="st7" d="M294.45,282.94c.71.05,1.43.39,1.91.98.49.58.7,1.4.58,2.16-.13.76-.59,1.47-1.23,1.87-.64.4-1.44.5-2.12.32-1.41-.36-2.2-1.8-1.97-3.05.18-1.25,1.38-2.38,2.84-2.27ZM292.1,286.98c.41.48,1,.74,1.57.77,1.18.06,2.1-.86,2.24-1.84.17-.97-.41-2.13-1.54-2.45-.55-.16-1.19-.09-1.73.23-.53.32-.91.9-1.02,1.53-.1.63.08,1.3.49,1.77Z"/>
  <path class="st7" d="M279.75,309.73c.71.05,1.43.39,1.91.98.49.58.7,1.4.58,2.16-.13.76-.59,1.47-1.23,1.87-.64.4-1.44.5-2.12.32-1.41-.36-2.2-1.8-1.97-3.05.18-1.25,1.38-2.38,2.84-2.27ZM277.4,313.77c.41.48,1,.74,1.57.77,1.18.06,2.1-.86,2.24-1.84.17-.97-.41-2.13-1.54-2.45-.55-.16-1.19-.09-1.73.23-.53.32-.91.9-1.02,1.53-.1.63.08,1.3.49,1.77Z"/>
  <path class="st7" d="M262.26,311.1c.71.05,1.43.39,1.91.98.49.58.7,1.4.58,2.16-.13.76-.59,1.47-1.23,1.87-.64.4-1.44.5-2.12.32-1.41-.36-2.2-1.8-1.97-3.05.18-1.25,1.38-2.38,2.84-2.27ZM259.91,315.15c.41.48,1,.74,1.57.77,1.18.06,2.1-.87,2.24-1.84.17-.97-.41-2.13-1.54-2.45-.55-.16-1.19-.09-1.73.23-.53.32-.91.9-1.02,1.53-.1.63.08,1.3.49,1.77Z"/>
  <path class="st7" d="M244.77,312.48c.71.05,1.43.39,1.91.98.49.58.7,1.4.58,2.16-.13.76-.59,1.47-1.23,1.87-.64.4-1.44.5-2.12.32-1.41-.36-2.2-1.8-1.97-3.05.18-1.25,1.38-2.38,2.84-2.27ZM242.42,316.53c.41.48,1,.74,1.57.77,1.18.06,2.1-.87,2.24-1.84.17-.97-.41-2.13-1.54-2.45-.55-.16-1.19-.09-1.73.23-.53.32-.91.9-1.02,1.53-.1.63.08,1.3.49,1.77Z"/>
  <path class="st7" d="M227.28,313.86c.71.05,1.43.39,1.91.98.49.58.7,1.4.58,2.16-.13.76-.59,1.47-1.23,1.87-.64.4-1.44.5-2.12.32-1.41-.36-2.2-1.8-1.97-3.05.18-1.25,1.38-2.38,2.84-2.27ZM224.93,317.91c.41.48,1,.74,1.57.77,1.18.06,2.1-.87,2.24-1.84.17-.97-.41-2.13-1.54-2.45-.55-.16-1.19-.09-1.73.23-.53.32-.91.9-1.02,1.53-.1.63.08,1.3.49,1.77Z"/>
  <path class="st7" d="M209.58,315.21c.71,0,1.45.28,1.98.83.53.54.8,1.34.74,2.11-.07.77-.47,1.51-1.09,1.96-.61.45-1.39.61-2.09.48-1.44-.25-2.33-1.63-2.2-2.89.08-1.26,1.19-2.48,2.65-2.49ZM207.55,319.43c.44.44,1.05.66,1.62.64,1.18-.03,2.02-1.02,2.09-2.01.1-.98-.57-2.09-1.73-2.33-.56-.11-1.2,0-1.71.36-.51.36-.84.96-.9,1.6-.05.64.18,1.29.62,1.73Z"/>
  <path class="st7" d="M294.52,301.24c.71.05,1.43.39,1.91.98.49.58.7,1.4.58,2.16-.13.76-.59,1.47-1.23,1.87-.64.4-1.44.5-2.12.32-1.41-.36-2.2-1.8-1.97-3.05.18-1.25,1.38-2.38,2.84-2.27ZM292.17,305.29c.41.48,1,.74,1.57.77,1.18.06,2.1-.87,2.24-1.84.17-.97-.41-2.13-1.54-2.45-.55-.16-1.19-.09-1.73.23-.53.32-.91.9-1.02,1.53-.1.63.08,1.3.49,1.77Z"/>
  <path class="st2" d="M375.24,381.42s9.84-51.37,11.29-136.33c0,0-118.15-15.07-186.16-.96,0,0,3.82,104.57,10.82,134.66,0,0,85.55,4.49,164.05,2.63Z"/>
  <path class="st6" d="M200.5,247.48c.73,18.1,4.44,104.43,10.69,131.31,0,0,82.26,4.33,159.46,2.74,1.52-8.6,9.53-56.98,10.75-132.29,0,0-113.32-14.49-180.9-1.76Z"/>
  <line class="st0" x1="293.07" y1="242.59" x2="264.1" y2="242.28"/>
  <path class="st9" d="M300.78,242.84l-43.33-.46c2.22-.06,4.44-.08,6.66-.1,9.73-.11,19.48.01,28.97.31,2.58.07,5.16.17,7.7.25Z"/>
  <line class="st0" x1="351.18" y1="246.09" x2="219.68" y2="244.68"/>
  <path class="st9" d="M353.29,246.29l-134.98-1.45c.46-.06.91-.11,1.37-.15l1.51-.17,127.68,1.37h.08c.75.08,1.51.15,2.23.21.71.07,1.41.13,2.11.2Z"/>
  <line class="st0" x1="381.4" y1="249.3" x2="201.14" y2="247.36"/>
  <path class="st9" d="M381.4,249.23v.24l-180.9-1.95v-.04c.21-.04.43-.08.64-.11.32-.07.63-.13.95-.17l178.3,1.91h.03c.64.08.98.13.98.13Z"/>
  <line class="st0" x1="381.36" y1="252.18" x2="200.61" y2="250.24"/>
  <path class="st9" d="M381.36,252c-.01.06-.01.11,0,.18-.01.06-.01.11-.01.17l-180.72-1.94c-.01-.06-.01-.11-.01-.17v-.18l180.74,1.94Z"/>
  <line class="st0" x1="381.29" y1="255.05" x2="200.74" y2="253.11"/>
  <path class="st9" d="M381.29,254.87v.35l-180.55-1.94v-.17c0-.06-.01-.13-.01-.18l180.56,1.94Z"/>
  <line class="st0" x1="381.23" y1="257.91" x2="200.86" y2="255.99"/>
  <path class="st9" d="M381.23,257.75v.17c-.01.07-.01.13-.01.18l-180.34-1.94c-.01-.06-.01-.11-.01-.17-.01-.07-.01-.13-.01-.18l180.38,1.94Z"/>
  <line class="st0" x1="381.16" y1="260.79" x2="200.99" y2="258.86"/>
  <path class="st9" d="M381.16,260.62v.17c-.01.07-.01.13-.01.18l-180.14-1.94c-.01-.06-.01-.11-.01-.17,0-.07-.01-.13,0-.18l180.17,1.94Z"/>
  <line class="st0" x1="381.08" y1="263.66" x2="201.12" y2="261.74"/>
  <path class="st9" d="M381.08,263.5v.17c0,.07,0,.13-.01.18l-179.93-1.93c0-.07-.01-.13-.01-.18v-.17l179.96,1.93Z"/>
  <line class="st0" x1="380.99" y1="266.54" x2="201.26" y2="264.61"/>
  <path class="st9" d="M380.99,266.37v.17c-.01.06-.01.13-.01.18l-179.71-1.93c-.01-.06-.01-.13-.01-.18s-.01-.11-.01-.17l179.75,1.93Z"/>
  <line class="st0" x1="380.9" y1="269.41" x2="201.4" y2="267.49"/>
  <path class="st9" d="M380.9,269.25v.17c0,.06,0,.13-.01.18l-179.47-1.93c-.01-.06-.01-.13-.01-.18-.01-.06-.01-.11-.01-.17l179.52,1.93Z"/>
  <line class="st0" x1="380.8" y1="272.3" x2="201.53" y2="270.38"/>
  <path class="st9" d="M380.8,272.12v.18c0,.06-.01.11-.01.17l-179.24-1.93c-.01-.06-.01-.11-.01-.17-.01-.06-.01-.13-.01-.18l179.28,1.93Z"/>
  <line class="st0" x1="380.69" y1="275.18" x2="201.67" y2="273.25"/>
  <path class="st9" d="M380.69,275v.18c0,.06,0,.11-.01.17l-179-1.91v-.18c0-.06-.01-.11-.01-.17l179.03,1.91Z"/>
  <line class="st0" x1="380.58" y1="278.05" x2="201.81" y2="276.13"/>
  <path class="st9" d="M380.58,277.87v.18c0,.06-.01.11-.01.17l-178.73-1.91c0-.06-.01-.13-.01-.18s0-.11-.01-.17l178.78,1.91Z"/>
  <line class="st0" x1="380.45" y1="280.93" x2="201.97" y2="279"/>
  <path class="st9" d="M380.46,280.75c-.01.07-.01.13-.01.18v.17l-178.47-1.91c-.01-.06-.01-.13-.01-.18s-.01-.11-.01-.17l178.51,1.91Z"/>
  <line class="st0" x1="380.33" y1="283.8" x2="202.12" y2="281.89"/>
  <path class="st9" d="M380.33,283.62v.18c-.01.06-.01.11-.01.17l-178.19-1.91v-.17c-.01-.07-.01-.13-.01-.18l178.22,1.91Z"/>
  <line class="st0" x1="380.19" y1="286.68" x2="202.27" y2="284.77"/>
  <path class="st9" d="M380.2,286.5c-.01.06-.01.13-.01.18s-.01.11,0,.17l-177.91-1.91v-.17c0-.06-.01-.13-.01-.18l177.94,1.91Z"/>
  <line class="st0" x1="380.05" y1="289.55" x2="202.44" y2="287.64"/>
  <path class="st9" d="M380.05,289.37v.18c-.01.06-.01.11-.01.17l-177.59-1.91c0-.06-.01-.11,0-.17-.01-.06-.01-.13-.01-.18l177.62,1.91Z"/>
  <line class="st0" x1="379.88" y1="292.43" x2="202.6" y2="290.52"/>
  <path class="st9" d="M379.89,292.26c0,.06,0,.11-.01.17v.18l-177.28-1.91v-.18c-.01-.06-.01-.11-.01-.17l177.31,1.91Z"/>
  <line class="st0" x1="379.72" y1="295.3" x2="202.75" y2="293.4"/>
  <path class="st9" d="M379.74,295.14c-.01.06-.01.11-.01.17v.17l-176.96-1.9c0-.06,0-.11-.01-.17v-.18l176.99,1.91Z"/>
  <line class="st0" x1="379.56" y1="298.18" x2="202.93" y2="296.28"/>
  <path class="st9" d="M379.57,298c0,.06-.01.13-.01.18v.17l-176.61-1.9c-.01-.06-.01-.11-.01-.17-.01-.06-.01-.13-.01-.18l176.66,1.9Z"/>
  <line class="st0" x1="379.38" y1="301.04" x2="203.1" y2="299.15"/>
  <path class="st9" d="M379.39,300.87c0,.06,0,.11-.01.17v.18l-176.28-1.88v-.18c0-.06-.01-.11-.01-.17l176.31,1.88Z"/>
  <line class="st0" x1="379.19" y1="303.91" x2="203.27" y2="302.03"/>
  <path class="st9" d="M379.21,303.75c0,.06,0,.11-.01.17,0,.06,0,.13-.01.18l-175.9-1.88c0-.07,0-.13-.01-.18,0-.06,0-.11-.01-.17l175.96,1.88Z"/>
  <line class="st0" x1="379.01" y1="306.79" x2="203.46" y2="304.9"/>
  <path class="st9" d="M379.01,306.62v.17c-.01.06-.01.13-.01.18l-175.54-1.88c0-.07-.01-.13,0-.18-.01-.06-.01-.11-.01-.17l175.57,1.88Z"/>
  <line class="st0" x1="378.8" y1="309.68" x2="203.63" y2="307.78"/>
  <path class="st9" d="M378.82,309.5c0,.06-.01.13-.01.18s0,.11-.01.17l-175.15-1.88c0-.06,0-.11-.01-.18v-.17l175.19,1.88Z"/>
  <line class="st0" x1="378.59" y1="312.55" x2="203.82" y2="310.67"/>
  <path class="st9" d="M378.61,312.37c0,.06,0,.13-.01.18,0,.06,0,.11-.01.17l-174.74-1.88c-.01-.06-.01-.11-.01-.17s-.01-.13-.01-.18l174.8,1.88Z"/>
  <line class="st0" x1="378.39" y1="315.43" x2="204.02" y2="313.54"/>
  <path class="st9" d="M378.39,315.25v.18c-.01.06-.01.11-.01.17l-174.34-1.87c0-.06-.01-.13-.01-.18s-.01-.11-.01-.17l174.38,1.87Z"/>
  <line class="st0" x1="378.15" y1="318.29" x2="204.21" y2="316.42"/>
  <path class="st9" d="M378.16,318.12c0,.06,0,.11-.01.17,0,.06,0,.13-.01.18l-173.91-1.87c0-.06,0-.11-.01-.18v-.17l173.95,1.87Z"/>
  <line class="st0" x1="377.92" y1="321.16" x2="204.42" y2="319.31"/>
  <path class="st9" d="M377.94,320.98c0,.06-.01.13-.01.18s-.01.11-.01.17l-173.47-1.86c0-.06-.01-.11-.01-.17s-.01-.11-.01-.18l173.53,1.86Z"/>
  <line class="st0" x1="377.69" y1="324.04" x2="204.63" y2="322.18"/>
  <path class="st9" d="M377.7,323.86c0,.06-.01.13-.01.18-.01.06-.01.11-.01.17l-173.03-1.86c0-.06-.01-.11-.01-.17s0-.13-.01-.18l173.08,1.86Z"/>
  <line class="st0" x1="377.42" y1="326.91" x2="204.84" y2="325.06"/>
  <path class="st9" d="M377.45,326.73c0,.06-.01.11-.03.18.01.06,0,.11-.01.17l-172.55-1.86c0-.06,0-.11-.01-.17,0-.06,0-.13-.01-.18l172.62,1.86Z"/>
  <line class="st0" x1="377.17" y1="329.79" x2="205.07" y2="327.95"/>
  <path class="st9" d="M377.19,329.62c0,.06,0,.11-.01.17,0,.06-.01.13-.01.18l-172.08-1.86c0-.06,0-.11-.01-.17,0-.06,0-.11-.01-.18l172.13,1.86Z"/>
  <line class="st0" x1="376.91" y1="332.66" x2="205.3" y2="330.82"/>
  <path class="st9" d="M376.92,332.5c0,.06-.01.11-.01.17s-.01.13-.01.18l-171.58-1.86c0-.06-.01-.11-.01-.17,0-.07-.01-.13-.01-.18l171.63,1.86Z"/>
  <line class="st0" x1="376.63" y1="335.54" x2="205.54" y2="333.7"/>
  <path class="st9" d="M376.64,335.36c0,.07,0,.13-.01.18,0,.06-.01.11-.01.17l-171.06-1.84c0-.06-.01-.11-.01-.17s-.01-.11-.01-.18l171.11,1.84Z"/>
  <line class="st0" x1="376.35" y1="338.4" x2="205.79" y2="336.57"/>
  <path class="st9" d="M376.36,338.23c0,.06-.01.11-.01.17-.01.06-.01.11-.01.18l-170.53-1.83c-.01-.06-.01-.13-.01-.18-.01-.06-.01-.11-.01-.17l170.58,1.83Z"/>
  <line class="st0" x1="376.04" y1="341.27" x2="206.03" y2="339.45"/>
  <path class="st9" d="M376.07,341.11c-.01.06-.01.11-.03.17,0,.07-.01.13-.01.18l-169.98-1.83c0-.06,0-.13-.01-.18,0-.06,0-.11-.01-.17l170.05,1.83Z"/>
  <line class="st0" x1="375.73" y1="344.15" x2="206.29" y2="342.33"/>
  <path class="st9" d="M375.75,343.98c0,.06,0,.11-.01.17,0,.06-.01.13-.01.18l-169.41-1.81c0-.07,0-.13-.01-.18,0-.06-.01-.11-.01-.17l169.47,1.81Z"/>
  <line class="st0" x1="375.43" y1="347.04" x2="206.56" y2="345.21"/>
  <path class="st9" d="M375.44,346.86c0,.07-.01.13-.01.18-.01.06-.01.11-.03.17l-168.81-1.81c-.01-.06-.01-.13-.03-.18,0-.06,0-.11-.01-.17l168.9,1.81Z"/>
  <line class="st0" x1="375.09" y1="349.9" x2="206.85" y2="348.08"/>
  <path class="st9" d="M375.11,349.73c0,.06,0,.11-.01.17,0,.07-.01.13-.03.18l-168.2-1.81c0-.06-.01-.11-.01-.18-.01-.06-.01-.11-.03-.17l168.28,1.81Z"/>
  <line class="st0" x1="374.76" y1="352.77" x2="207.15" y2="350.97"/>
  <path class="st9" d="M374.78,352.59c-.01.06-.01.13-.03.18,0,.06-.01.11-.01.17l-167.57-1.8c-.01-.06-.03-.11-.03-.17-.01-.06-.01-.13-.01-.18l167.65,1.8Z"/>
  <line class="st0" x1="374.41" y1="355.65" x2="207.45" y2="353.85"/>
  <path class="st9" d="M374.44,355.47c-.01.06-.01.13-.03.18,0,.06-.01.11-.03.17l-166.9-1.79c-.01-.06-.03-.11-.03-.18-.01-.06-.01-.11-.01-.17l167,1.79Z"/>
  <line class="st0" x1="374.04" y1="358.52" x2="207.77" y2="356.74"/>
  <path class="st9" d="M374.07,358.34c-.01.06-.01.13-.03.18,0,.06-.01.11-.03.17l-166.22-1.79c-.01-.06-.03-.11-.03-.17-.01-.06-.01-.13-.01-.18l166.31,1.79Z"/>
  <line class="st0" x1="373.68" y1="361.4" x2="208.11" y2="359.61"/>
  <path class="st9" d="M373.71,361.22c-.01.06-.03.13-.03.18-.01.06-.01.11-.03.17l-165.52-1.79c-.01-.06-.01-.11-.03-.17,0-.06-.01-.11-.01-.18l165.62,1.79Z"/>
  <line class="st0" x1="373.29" y1="364.26" x2="208.48" y2="362.49"/>
  <path class="st9" d="M373.32,364.08c-.01.06-.01.13-.03.18,0,.06-.01.11-.01.17l-164.78-1.76c-.01-.06-.01-.11-.01-.18-.01-.06-.03-.13-.03-.18l164.86,1.77Z"/>
  <line class="st0" x1="372.9" y1="367.13" x2="208.86" y2="365.38"/>
  <path class="st9" d="M372.91,366.97c0,.06-.01.11-.01.17-.01.07-.03.13-.03.18l-163.98-1.77c-.01-.06-.03-.11-.03-.17-.01-.06-.01-.13-.03-.18l164.08,1.77Z"/>
  <line class="st0" x1="372.48" y1="370.01" x2="209.28" y2="368.25"/>
  <path class="st9" d="M372.51,369.84c-.01.06-.01.11-.03.17s-.01.11-.03.17l-163.15-1.76c-.01-.06-.03-.11-.03-.17-.01-.06-.03-.11-.03-.18l163.26,1.77Z"/>
  <line class="st0" x1="372.06" y1="372.87" x2="209.71" y2="371.14"/>
  <path class="st9" d="M372.09,372.7c-.01.06-.03.11-.03.17-.01.07-.03.13-.03.18l-162.29-1.74c0-.06-.01-.11-.03-.17,0-.06-.01-.11-.03-.18l162.41,1.74Z"/>
  <line class="st0" x1="371.62" y1="375.75" x2="210.22" y2="374.01"/>
  <path class="st9" d="M371.64,375.58c-.01.06-.03.11-.03.17-.01.06-.03.13-.03.18l-161.35-1.73c0-.06-.01-.13-.03-.18s-.01-.11-.03-.17l161.46,1.73Z"/>
  <line class="st0" x1="371.14" y1="378.62" x2="210.77" y2="376.89"/>
  <path class="st9" d="M371.17,378.45c0,.06-.01.11-.03.17,0,.07-.01.13-.03.18l-160.3-1.73c-.01-.06-.03-.13-.04-.18s-.03-.11-.03-.17l160.42,1.73Z"/>
  <polyline class="st0" points="242.31 380.11 242.44 380.11 370.65 381.48"/>
  <path class="st9" d="M370.68,381.31c0,.06-.01.11-.03.17v.04c-1.65.03-3.29.07-4.94.1l-115.82-1.26c-2.6-.08-5.07-.17-7.45-.25h-.13c-2.23-.08-4.38-.17-6.42-.24l134.79,1.44Z"/>
  <path class="st10" d="M281.22,327.71c-.2,3.15.53,6.47,2.47,9.27.95,1.41,2.32,2.59,3.88,3.41,1.57.82,3.34,1.16,5.05,1.23,1.75.02,3.58-.36,5.16-1.25,1.55-.93,2.81-2.23,3.65-3.7,1.71-2.93,2.28-6.22,2.04-9.37-.92,3-2.1,5.88-3.86,8.14-1.75,2.28-4.21,3.52-6.94,3.41-2.79-.01-5.38-1.1-7.3-3.21-1.92-2.1-3.24-4.92-4.16-7.92Z"/>
  <path class="st10" d="M341.27,322.95c8.91-.15,8.56,17.69.3,17.83-8.13.14-7.77-17.7-.3-17.83Z"/>
  <path class="st10" d="M240.5,321.76c8.91-.15,8.56,17.69.3,17.83-8.13.14-7.77-17.7-.3-17.83Z"/>
  <path class="st2" d="M213.71,323.09c-3.05-22.38-4.26-44.96-4.44-67.54,0,0-.02-1.59-.02-1.59,11.99-2.8,24.05-4.42,36.26-5.39,11.63-.89,23.3-1.13,34.94-.53-2.9.31-5.8.53-8.69.8-14.26,1.34-28.97,2.99-43.09,5.36-5.68.95-11.42,1.96-16.92,3.29l1.51-1.94c0,5.62.03,11.24.11,16.86.14,15.7.45,35.06.33,50.69h0Z"/>
  <path class="st12" d="M295.88,639.74s7.81,4.27,26.14,3.52c18.33-.75,25.75-5.65,25.75-5.65,0,0-5.27-66.19-15.4-97.17-3.64-11.13-7.02-21.14-17.65-20.7-12.42.51-14.07,10.51-15.9,22.08-4.52,28.52-2.94,97.92-2.94,97.92Z"/>
  <rect class="st6" x="317.92" y="620.23" width="15.11" height="27.73" transform="translate(676.62 1254.33) rotate(177.65)"/>
  <path class="st10" d="M295.88,639.74s7.82,4.27,26.16,3.52c18.32-.75,25.74-5.65,25.74-5.65,0,0-.14-3.13-.43-8.35-5.79-3.62-13.11-5.94-22.3-5.56-13.99.57-23.14,7-29.08,14.54-.06.98-.09,1.5-.09,1.5Z"/>
  <path class="st12" d="M285.02,660.22h88.31s-5.64-32.57-40.89-31.32c-35.99,1.28-47.42,31.32-47.42,31.32Z"/>
  <path class="st11" d="M290.19,650.23c0,5.52,3.92,9.99,8.75,9.99s8.75-4.47,8.75-9.99-3.92-9.99-8.75-9.99-8.75,4.47-8.75,9.99Z"/>
  <path class="st10" d="M290.19,650.23c0,5.52,3.92,9.99,8.75,9.99s8.75-4.47,8.75-9.99-3.92-9.99-8.75-9.99-8.75,4.47-8.75,9.99Z"/>
  <path class="st12" d="M286.02,639.74s-7.81,4.27-26.14,3.52c-18.33-.75-25.75-5.65-25.75-5.65,0,0,5.27-66.19,15.4-97.17,3.64-11.13,7.02-21.14,17.65-20.7,12.42.51,14.07,10.51,15.9,22.08,4.52,28.52,2.94,97.92,2.94,97.92Z"/>
  <rect class="st6" x="248.87" y="620.23" width="15.11" height="27.73" transform="translate(26.16 -9.96) rotate(2.35)"/>
  <path class="st10" d="M286.02,639.74s-7.82,4.27-26.16,3.52c-18.32-.75-25.74-5.65-25.74-5.65,0,0,.14-3.13.43-8.35,5.79-3.62,13.11-5.94,22.3-5.56,13.99.57,23.14,7,29.08,14.54.06.98.09,1.5.09,1.5Z"/>
  <path class="st12" d="M296.87,660.22h-88.31s5.64-32.57,40.89-31.32c35.99,1.28,47.42,31.32,47.42,31.32Z"/>
  <path class="st11" d="M291.71,650.23c0,5.52-3.92,9.99-8.75,9.99s-8.75-4.47-8.75-9.99,3.92-9.99,8.75-9.99,8.75,4.47,8.75,9.99Z"/>
  <path class="st10" d="M291.71,650.23c0,5.52-3.92,9.99-8.75,9.99s-8.75-4.47-8.75-9.99,3.92-9.99,8.75-9.99,8.75,4.47,8.75,9.99Z"/>
  <path class="st8" d="M237.16,526.12c.59.2,3.99,12.08,4.02,13.05.04.97-1.32,3.93-3.5,5.58-2.18,1.65-6.26,2.15-7.01,1.65-.76-.5-6.29-11.45-6.31-12.76-.02-1.31,6.71-9.58,12.8-7.51Z"/>
  <path class="st6" d="M224.36,533.63c.02,1.31,5.55,12.26,6.31,12.76.19.13.63.19,1.19.18-1.12-3.86-2.89-10.16-3.04-11.49-.22-1.84,2.39-6.58,4.48-9.06-4.76,1.19-8.95,6.56-8.94,7.6Z"/>
  <path class="st8" d="M215.17,547.14c-.88,1.56-5.05,2.15-9.04.72-1.77-.63-5.48-9.29-5.66-12.23-.18-2.93-.2-11.8.05-12.62.25-.81,10.76,2.41,11.33,3.29.57.88-.04,10.04,1.01,13.61,1.04,3.57,2.61,6.69,2.31,7.23Z"/>
  <path class="st6" d="M203.68,523.37c2.36,2.54,3,8.35,3.57,10.41.51,1.8,4.76,10.54,6.64,14.35.6-.25,1.05-.59,1.28-.99.31-.54-1.26-3.66-2.3-7.23s-.43-12.73-1.01-13.61c-.37-.57-4.96-2.14-8.18-2.93Z"/>
  <path class="st8" d="M225.7,530.93c.69.41,5.31,15.26,5.25,16.03-.15,1.88-4.14,4.9-6.38,5.37-2.23.47-8.17-2.09-8.74-2.55-.57-.46-4.4-7.55-4.91-8.84-.5-1.29-1.73-12.56-1.44-12.88.29-.32,15.42,2.4,16.21,2.88Z"/>
  <path class="st6" d="M198.29,510.5c.07,2.05,1.86,18.94,3.5,20.66,1.64,1.72,8.48,4.6,13.65,5.37,6.86,1.02,16.18-1.57,19.8-4.34,3.62-2.77,5.82-22.38,4.79-23.27s-12.19-6.35-20.37-6.35c-9.61,0-21.44,6.07-21.37,7.92Z"/>
  <path class="st8" d="M201.28,529.59c2.57,1.31,5.22,2.44,7.94,3.38,2.72.93,5.55,1.62,8.42,1.57,2.87-.02,5.73-.52,8.52-1.17,2.79-.69,5.56-1.52,8.26-2.52-2.67,1.09-5.42,1.97-8.22,2.67-2.8.68-5.66,1.21-8.56,1.25-2.91.03-5.76-.7-8.48-1.65-2.73-.95-5.37-2.14-7.89-3.52Z"/>
  <path class="st8" d="M200.9,527.35c2.68,1.36,5.45,2.55,8.28,3.53,2.83.97,5.79,1.69,8.78,1.64,2.99-.02,5.97-.54,8.89-1.23,2.91-.72,5.79-1.58,8.61-2.63-2.78,1.14-5.65,2.05-8.57,2.78-2.92.71-5.9,1.26-8.92,1.31-3.03.03-6-.73-8.84-1.72-2.84-.99-5.59-2.23-8.23-3.67Z"/>
  <path class="st8" d="M200.58,525.26c2.77,1.41,5.64,2.64,8.57,3.66,2.93,1,5.99,1.75,9.1,1.7,3.1-.03,6.18-.56,9.21-1.27,3.02-.74,6-1.64,8.91-2.73-2.88,1.18-5.86,2.12-8.88,2.88-3.02.73-6.11,1.3-9.24,1.35-3.14.03-6.22-.75-9.15-1.78-2.94-1.03-5.79-2.31-8.53-3.8Z"/>
  <path class="st8" d="M200.86,523.34c2.77,1.41,5.64,2.64,8.57,3.66,2.93,1,5.99,1.75,9.1,1.7,3.1-.03,6.18-.56,9.21-1.27,3.02-.74,6-1.64,8.91-2.73-2.88,1.17-5.86,2.12-8.88,2.88-3.02.73-6.11,1.3-9.24,1.35-3.14.03-6.22-.75-9.15-1.78-2.94-1.03-5.79-2.31-8.53-3.8Z"/>
  <path class="st8" d="M200.55,521.12c2.87,1.47,5.84,2.73,8.88,3.79,3.04,1.04,6.21,1.82,9.42,1.76,3.21-.03,6.4-.58,9.53-1.32,3.12-.77,6.21-1.7,9.23-2.83-2.98,1.22-6.06,2.2-9.19,2.98-3.13.76-6.33,1.35-9.57,1.4-3.25.03-6.44-.78-9.47-1.84-3.05-1.06-6-2.39-8.83-3.93Z"/>
  <path class="st8" d="M200.05,518.69c2.95,1.51,5.99,2.81,9.12,3.89,3.12,1.06,6.37,1.87,9.68,1.81,3.3-.03,6.58-.6,9.79-1.35,3.21-.79,6.38-1.75,9.48-2.91-3.07,1.25-6.23,2.26-9.44,3.06-3.22.78-6.5,1.38-9.82,1.43-3.34.03-6.61-.8-9.73-1.89-3.13-1.09-6.16-2.45-9.07-4.03Z"/>
  <path class="st8" d="M199.65,516.37c3.06,1.56,6.22,2.92,9.46,4.04,3.24,1.11,6.62,1.94,10.05,1.88,3.43-.03,6.83-.63,10.17-1.41,3.33-.82,6.62-1.81,9.84-3.02-3.18,1.29-6.47,2.34-9.8,3.17-3.34.81-6.75,1.43-10.2,1.49-3.47.04-6.86-.83-10.1-1.96-3.25-1.13-6.4-2.54-9.42-4.19Z"/>
  <path class="st8" d="M199.11,514.14c3.14,1.61,6.39,3,9.72,4.16,3.33,1.14,6.8,1.99,10.32,1.93,3.52-.03,7.02-.64,10.44-1.45,3.42-.84,6.81-1.86,10.11-3.11-3.27,1.33-6.64,2.4-10.07,3.26-3.43.83-6.93,1.47-10.48,1.53-3.56.04-7.05-.85-10.37-2.02-3.34-1.17-6.57-2.61-9.67-4.3Z"/>
  <path class="st8" d="M233.51,416.95c-1.97,9.9.99,19.75,6.6,22,5.61,2.25,11.75-3.95,13.72-13.85,1.97-9.9-.99-19.75-6.6-22-5.61-2.25-11.75,3.95-13.72,13.85Z"/>
  <path class="st2" d="M233.7,417.01c-1.67,8.35.83,16.67,5.55,18.56.08.02.18.07.26.09,4.67,1.62,9.69-3.57,11.32-11.78,1.46-7.38-.33-14.75-4.05-17.67-.48-.36-.99-.66-1.52-.88-4.72-1.9-9.91,3.33-11.56,11.67Z"/>
  <path class="st6" d="M235.47,417.98c-1.46,7.4.32,14.78,4.04,17.69,4.67,1.62,9.69-3.57,11.32-11.78,1.46-7.38-.33-14.75-4.05-17.67-4.67-1.62-9.67,3.58-11.31,11.76Z"/>
  <path class="st3" d="M239.68,414.21l5.2,1.56c.53.15,1.24,2.73.87,5.43-.38,2.71-1.71,4.52-2.24,4.37l-5.2-1.56,1.37-9.8Z"/>
  <path class="st9" d="M239.68,414.21c-.93-.27-2,1.71-2.37,4.41-.38,2.71.07,5.12,1,5.39.93.27,2-1.71,2.37-4.41.38-2.71-.07-5.12-1-5.39Z"/>
  <path class="st12" d="M240.82,522.42s-14.94,5.49-27.98,1.88c-15.01-4.16-18.13-11.85-18.13-11.85,0,0,18.53-73.78,32.4-93.42,4.98-7.05,11.03-15.92,16.94-10.76,3.1,2.71,5.71,20.59,4.48,29.14-3.01,21.08-7.7,85.01-7.7,85.01Z"/>
  <path class="st6" d="M234.96,474.48s-17.54-1.77-27.18-8.35l-2.68,8.97s10.21,6.34,28.89,8.27l.97-8.89Z"/>
  <path class="st6" d="M236.89,493.88s.06,0,.08,0c5.76.59,11.06-5.15,11.83-12.88.7-6.82-2.33-12.9-7.01-14.73-.65-.25-1.33-.43-2.04-.51-5.79-.65-11.13,5.12-11.93,12.88-.78,7.75,3.27,14.58,9.07,15.22Z"/>
  <path class="st8" d="M236.97,493.89c5.76.59,11.06-5.15,11.83-12.88.7-6.82-2.33-12.9-7.01-14.73-5.76-.59-11.06,5.17-11.85,12.89-.69,6.81,2.35,12.89,7.03,14.72Z"/>
  <path class="st8" d="M352.22,416.95c1.97,9.9-.99,19.75-6.6,22-5.61,2.25-11.75-3.95-13.72-13.85-1.97-9.9.99-19.75,6.6-22,5.61-2.25,11.75,3.95,13.72,13.85Z"/>
  <path class="st2" d="M352.03,417.01c1.67,8.35-.83,16.67-5.55,18.56-.08.02-.18.07-.26.09-4.67,1.62-9.69-3.57-11.32-11.78-1.46-7.38.32-14.75,4.05-17.67.48-.36.99-.66,1.52-.88,4.72-1.9,9.91,3.33,11.56,11.67Z"/>
  <path class="st6" d="M350.26,417.98c1.46,7.4-.32,14.78-4.04,17.69-4.67,1.62-9.69-3.57-11.32-11.78-1.46-7.38.32-14.75,4.05-17.67,4.67-1.62,9.67,3.58,11.31,11.76Z"/>
  <path class="st3" d="M346.05,414.21l-5.2,1.56c-.53.15-1.24,2.73-.87,5.43.38,2.71,1.71,4.52,2.24,4.37l5.2-1.56-1.37-9.8Z"/>
  <path class="st9" d="M346.05,414.21c.93-.27,2,1.71,2.37,4.41.38,2.71-.07,5.12-1,5.39-.93.27-2-1.71-2.37-4.41-.38-2.71.07-5.12,1-5.39Z"/>
  <path class="st12" d="M384.73,472.08c-16.31-13.45-31.83-27.09-37.92-33.45-6.34-6.62-11.42-21.67-10.42-25.93,1.91-8.12,12.62-4.2,21.28-1.19,10.73,3.73,28.89,16.14,45.74,28.78-1.52,14.19-6.03,26.27-18.68,31.8Z"/>
  <path class="st8" d="M437.97,422.33c.6.17,10.12-7.71,10.69-8.49.58-.78,1.13-3.99.26-6.58-.87-2.59-3.95-5.31-4.86-5.32-.91-.01-11.66,5.9-12.42,6.96-.76,1.07.12,11.7,6.32,13.43Z"/>
  <path class="st5" d="M431.66,408.9c.75-1.07,11.51-6.98,12.42-6.96.24,0,.63.2,1.08.52-3.1,2.56-8.12,6.75-9,7.76-1.22,1.4-1.75,6.78-1.43,10-3.25-3.68-3.67-10.47-3.08-11.32Z"/>
  <path class="st8" d="M434.4,382.56c-.31-1.77-4.03-3.73-8.26-3.73-1.88,0-8.29,6.9-9.46,9.6-1.16,2.7-4.18,11.04-4.21,11.89-.04.85,10.94,1.37,11.78.73s3.35-9.46,5.54-12.47c2.19-3.01,4.72-5.41,4.61-6.03Z"/>
  <path class="st6" d="M415.56,401.05c3.07-1.59,5.64-6.85,6.88-8.6,1.09-1.53,8.04-8.31,11.1-11.26.48.44.79.91.86,1.36.11.62-2.42,3.02-4.61,6.03-2.19,3.01-4.71,11.83-5.54,12.47-.54.41-5.39.34-8.69,0Z"/>
  <path class="st8" d="M433.57,409.92c.8-.08,11.37-11.48,11.65-12.19.68-1.76-1.62-6.21-3.43-7.6s-8.27-1.64-8.98-1.47-7.23,4.91-8.24,5.86c-1.01.95-6.98,10.59-6.86,11,.12.41,14.94,4.49,15.87,4.4Z"/>
  <path class="st6" d="M397.99,407.29c1.53-1.37,14.93-11.8,17.31-11.81,2.38-.01,9.19,2.92,13.34,6.11,5.49,4.23,10.09,12.75,10.61,17.27.52,4.53-12.08,19.71-13.44,19.59-1.35-.12-13.03-4.38-18.7-10.27-6.67-6.92-10.5-19.65-9.12-20.89Z"/>
  <path class="st8" d="M413.81,396.21c2.72.94,5.38,2.07,7.94,3.38,2.55,1.32,5.02,2.87,6.97,4.98,1.98,2.08,3.6,4.49,5.07,6.95,1.44,2.49,2.76,5.06,3.91,7.7-1.06-2.68-2.34-5.27-3.78-7.78-1.45-2.49-3.06-4.91-5.03-7.04-2-2.12-4.5-3.66-7.07-4.96-2.58-1.3-5.26-2.38-8.01-3.24Z"/>
  <path class="st8" d="M411.93,397.48c2.84.98,5.61,2.16,8.28,3.52,2.66,1.37,5.23,3,7.27,5.19,2.06,2.17,3.75,4.68,5.28,7.25,1.5,2.6,2.88,5.27,4.07,8.03-1.11-2.79-2.44-5.5-3.94-8.11-1.52-2.59-3.19-5.12-5.25-7.33-2.08-2.21-4.69-3.82-7.37-5.17-2.69-1.36-5.49-2.48-8.35-3.38Z"/>
  <path class="st8" d="M410.21,398.71c2.94,1.02,5.81,2.23,8.58,3.64,2.76,1.42,5.42,3.1,7.53,5.38,2.13,2.25,3.88,4.85,5.47,7.51,1.56,2.69,2.98,5.46,4.22,8.32-1.15-2.89-2.53-5.69-4.08-8.39-1.57-2.69-3.3-5.3-5.44-7.59-2.16-2.28-4.86-3.96-7.63-5.36-2.78-1.41-5.68-2.57-8.65-3.51Z"/>
  <path class="st8" d="M409.02,400.24c2.94,1.02,5.81,2.23,8.58,3.64,2.76,1.42,5.42,3.1,7.53,5.38,2.13,2.25,3.88,4.85,5.47,7.51,1.56,2.69,2.98,5.46,4.22,8.32-1.15-2.89-2.53-5.69-4.08-8.39-1.57-2.69-3.3-5.3-5.44-7.59-2.16-2.28-4.86-3.96-7.63-5.36-2.78-1.41-5.68-2.57-8.65-3.51Z"/>
  <path class="st8" d="M407.2,401.56c3.05,1.05,6.02,2.31,8.88,3.77,2.85,1.47,5.61,3.21,7.8,5.57,2.21,2.33,4.02,5.02,5.66,7.78,1.61,2.78,3.08,5.65,4.36,8.61-1.19-2.99-2.62-5.89-4.23-8.69-1.63-2.78-3.42-5.49-5.63-7.86-2.23-2.37-5.03-4.1-7.9-5.54-2.88-1.46-5.88-2.67-8.95-3.63Z"/>
  <path class="st5" d="M405.1,402.88c3.13,1.08,6.18,2.37,9.13,3.87,2.93,1.51,5.77,3.3,8.01,5.72,2.27,2.4,4.13,5.15,5.82,7.99,1.65,2.86,3.17,5.81,4.48,8.84-1.23-3.07-2.69-6.05-4.35-8.92-1.67-2.86-3.51-5.64-5.78-8.07-2.29-2.43-5.16-4.21-8.11-5.7-2.96-1.5-6.04-2.74-9.2-3.73Z"/>
  <path class="st5" d="M403.16,404.2c3.25,1.12,6.42,2.46,9.48,4.01,3.04,1.57,5.99,3.42,8.32,5.94,2.35,2.49,4.29,5.35,6.04,8.3,1.72,2.97,3.29,6.03,4.65,9.19-1.28-3.19-2.8-6.28-4.52-9.26-1.73-2.96-3.65-5.85-6-8.38-2.38-2.52-5.36-4.37-8.42-5.91-3.07-1.55-6.27-2.85-9.55-3.88Z"/>
  <path class="st5" d="M401.18,405.36c3.34,1.15,6.6,2.52,9.74,4.12,3.13,1.61,6.15,3.52,8.55,6.1,2.42,2.56,4.4,5.5,6.2,8.53,1.76,3.05,3.38,6.2,4.77,9.44-1.31-3.28-2.88-6.45-4.64-9.51-1.78-3.05-3.75-6.01-6.17-8.61-2.44-2.59-5.5-4.49-8.65-6.08-3.15-1.6-6.44-2.92-9.81-3.99Z"/>
  <path class="st12" d="M372.66,444.97c11.82-21.73,24.24-41.61,24.24-41.61,0,0,7.71-3.09,21.11,4.84,11.65,6.89,18.06,21.46,18.06,21.46,0,0-16.13,22.89-36.43,38.69-22.34-2.87-20.58-11.34-26.98-23.38Z"/>
  <path class="st6" d="M383.13,459.08s2.74-23.36-1.48-34.24l2.93-.18s9.79,16.86,7.43,35.49l-8.88-1.07Z"/>
  <path class="st6" d="M401.59,465.36s-.01.05-.01.08c-.74,5.75-7.53,9.6-15.23,8.6-6.8-.87-12.03-5.2-12.75-10.18-.1-.69-.11-1.4-.03-2.1.69-5.79,7.52-9.68,15.25-8.69,7.73,1,13.45,6.49,12.77,12.29Z"/>
  <path class="st8" d="M401.58,465.45c-.74,5.75-7.53,9.6-15.23,8.6-6.8-.87-12.03-5.2-12.75-10.18.74-5.75,7.54-9.6,15.24-8.61,6.79.87,12.02,5.22,12.74,10.19Z"/>
  <polygon class="st3" points="294.34 218.07 294.34 218.18 293.99 218.12 294.34 218.07"/>
  <polygon class="st3" points="293.99 218.12 293.63 218.18 293.63 218.07 293.99 218.12"/>
  <ellipse class="st6" cx="294.45" cy="201.07" rx="5.44" ry="6.23"/>
  <ellipse class="st6" cx="275.19" cy="201.6" rx="5.32" ry="3.79" transform="translate(8.57 414.42) rotate(-74.82)"/>
  <path class="st6" d="M265.64,204.4c-.61,2.26-2.32,3.78-3.95,3.64.36-2.5,1.05-5.29,1.67-7.56.13-.45.29-.88.5-1.28,1.62.57,2.4,2.85,1.77,5.21Z"/>
  <ellipse class="st6" cx="312.61" cy="201.6" rx="3.79" ry="5.32" transform="translate(-41.88 88.88) rotate(-15.18)"/>
  <path class="st6" d="M322.36,204.4c.61,2.26,2.32,3.78,3.95,3.64-.36-2.5-1.05-5.29-1.67-7.56-.13-.45-.29-.88-.5-1.28-1.62.57-2.4,2.85-1.77,5.21Z"/>
  <g>
    <path class="st4" d="M309.39,426.3c1.04,0,1.98.2,2.81.59.83.39,1.52.93,2.06,1.63.54.69.9,1.48,1.09,2.38.2.89.21,1.84.02,2.87s-.54,1.92-1.06,2.77c-.5.84-1.12,1.57-1.85,2.19-.73.61-1.53,1.08-2.42,1.42-.87.33-1.79.49-2.75.48s-1.83-.18-2.62-.51c-.78-.35-1.44-.83-1.98-1.44-.55-.63-.95-1.37-1.22-2.21-.25-.85-.33-1.78-.22-2.78s.39-1.98.84-2.86c.47-.91,1.07-1.69,1.81-2.36.74-.69,1.58-1.22,2.51-1.61.95-.38,1.95-.57,2.99-.57ZM309.01,429.13c-.57,0-1.12.11-1.67.35-.53.23-1.02.56-1.46.99-.42.42-.78.91-1.06,1.47-.28.55-.46,1.15-.54,1.78s-.05,1.22.1,1.77c.14.53.37,1,.69,1.41.32.4.7.71,1.14.94.45.22.94.33,1.47.33s1.05-.1,1.55-.31c.51-.22.98-.53,1.4-.93.42-.41.78-.88,1.07-1.4.3-.55.51-1.13.62-1.77s.1-1.23-.02-1.79c-.11-.56-.31-1.05-.61-1.48-.3-.43-.68-.76-1.15-1-.45-.24-.96-.36-1.53-.36Z"/>
    <path class="st4" d="M299.66,430.97c-.39-.59-.88-1.05-1.48-1.39-.6-.35-1.21-.53-1.84-.53-.58,0-1.12.11-1.64.35-.5.23-.96.56-1.36.99-.39.41-.71.89-.94,1.45-.23.55-.36,1.15-.4,1.78s.04,1.2.2,1.73c.17.53.42,1,.75,1.39.34.38.74.69,1.19.92.46.22.96.33,1.51.33.58,0,1.18-.13,1.79-.41.61-.29,1.18-.67,1.69-1.16l1.52,1.85c-.5.47-1.05.88-1.65,1.22-.59.34-1.2.61-1.83.8-.63.18-1.25.27-1.86.26-.95,0-1.81-.18-2.6-.51-.77-.35-1.45-.83-2.02-1.44-.57-.63-1-1.36-1.31-2.21-.31-.85-.45-1.78-.41-2.79s.25-1.96.64-2.84c.39-.89.93-1.68,1.62-2.36.69-.69,1.48-1.22,2.37-1.6.91-.38,1.88-.57,2.93-.57.66,0,1.31.11,1.95.31.65.2,1.24.49,1.77.86.55.36,1.02.8,1.42,1.32l-1.99,2.23Z"/>
    <path class="st4" d="M284.6,426.19h3.12s-.4,14.33-.4,14.33l-2.87-.02.15-14.31Z"/>
    <path class="st4" d="M270.08,426.13h3.13s.33,6.32.33,6.32l6.06.03-.11-6.31h3.13s0,14.32,0,14.32l-2.89-.02-.1-5.44-5.98-.03.28,5.44-2.88-.02-.99-14.29Z"/>
    <g>
      <path class="st4" d="M276.29,451.92l-5.09-9.68h2.3s3.12,6.73,3.12,6.73l2.64-6.68h2.3s-4.36,9.63-4.36,9.63h-.91Z"/>
      <path class="st4" d="M279.24,451.91l4.47-9.65h.99s4.3,9.72,4.3,9.72l-2.17-.02-2.63-6.53-2.79,6.49-2.17-.02ZM281.44,450.07v-1.5s5.46.04,5.46.04l-.04,1.5-5.42-.04Z"/>
      <path class="st4" d="M293.21,452.2c-.76,0-1.45-.16-2.05-.47-.61-.31-1.08-.75-1.42-1.33-.35-.58-.5-1.28-.47-2.1l.25-5.99h1.96s-.31,5.9-.31,5.9c-.03.51.05.93.22,1.27.18.34.43.59.77.75.34.16.73.25,1.17.25s.84-.07,1.2-.23c.36-.16.65-.41.87-.74.23-.33.36-.76.4-1.27l.48-5.89h1.96s-.56,6-.56,6c-.08.82-.33,1.51-.75,2.09-.42.57-.95,1.01-1.6,1.3s-1.35.44-2.12.44Z"/>
      <path class="st4" d="M298.9,452.05l1-9.64h1.97s-.93,8.05-.93,8.05l4.9.03-.24,1.6-6.7-.05Z"/>
      <path class="st4" d="M305.06,444.16l.23-1.71,8.43.05-.32,1.71-8.34-.05ZM307,452.11l1.51-9.64h1.97s-1.62,9.65-1.62,9.65h-1.85Z"/>
    </g>
  </g>
  <polygon class="st1" points="484.45 137.56 384.35 137.56 384.35 195.96 392.55 195.96 392.55 210.12 406.71 195.96 484.45 195.96 484.45 137.56"/>
  <g>
    <path class="st6" d="M453.32,166.67c0,2.62,2.12,4.74,4.74,4.74s4.74-2.12,4.74-4.74-2.12-4.74-4.74-4.74-4.74,2.12-4.74,4.74Z"/>
    <path class="st6" d="M429.66,166.67c0,2.62,2.12,4.74,4.74,4.74s4.74-2.12,4.74-4.74-2.12-4.74-4.74-4.74-4.74,2.12-4.74,4.74Z"/>
    <path class="st6" d="M405.99,166.67c0,2.62,2.12,4.74,4.74,4.74s4.74-2.12,4.74-4.74-2.12-4.74-4.74-4.74-4.74,2.12-4.74,4.74Z"/>
  </g>
</svg>